<svg xmlns="http://www.w3.org/2000/svg" class="rich-terminal" viewBox="0 0 1287 879.6"><style>@font-face{font-family:&quot;Fira Code&quot;;src:local(&quot;FiraCode-Regular&quot;),url(https://cdnjs.cloudflare.com/ajax/libs/firacode/6.2.0/woff2/FiraCode-Regular.woff2) format(&quot;woff2&quot;),url(https://cdnjs.cloudflare.com/ajax/libs/firacode/6.2.0/woff/FiraCode-Regular.woff) format(&quot;woff&quot;);font-style:normal;font-weight:400}@font-face{font-family:&quot;Fira Code&quot;;src:local(&quot;FiraCode-Bold&quot;),url(https://cdnjs.cloudflare.com/ajax/libs/firacode/6.2.0/woff2/FiraCode-Bold.woff2) format(&quot;woff2&quot;),url(https://cdnjs.cloudflare.com/ajax/libs/firacode/6.2.0/woff/FiraCode-Bold.woff) format(&quot;woff&quot;);font-style:bold;font-weight:700}.terminal-1714900664-matrix{font-family:Fira Code,monospace;font-size:20px;line-height:24.4px;font-variant-east-asian:full-width}.terminal-1714900664-title{font-size:18px;font-weight:700;font-family:arial}.terminal-1714900664-r2{fill:#1a1b26;font-weight:700}.terminal-1714900664-r3{fill:#c0caf5}.terminal-1714900664-r4{fill:#7dcfff;font-weight:700}.terminal-1714900664-r5{fill:#565f89}.terminal-1714900664-r6{fill:#737aa2}.terminal-1714900664-r7{fill:#7aa2f7;font-weight:700}.terminal-1714900664-r8{fill:#c0caf5;font-weight:700}.terminal-1714900664-r9{fill:#bb9af7}.terminal-1714900664-r10{fill:#bb9af7;font-weight:700}.terminal-1714900664-r11{fill:#9ece6a}.terminal-1714900664-r12{fill:#9ece6a;font-weight:700}.terminal-1714900664-r13{fill:#737aa2;font-style:italic}.terminal-1714900664-r14{fill:#7dcfff}.terminal-1714900664-r15{fill:#2f334d}.terminal-1714900664-r16{fill:#e0e0e0}</style><defs><clipPath id="terminal-1714900664-clip-terminal"><rect width="1267.8" height="828.6" x="0" y="0"/></clipPath><clipPath id="terminal-1714900664-line-0"><rect width="1268.8" height="24.65" x="0" y="1.5"/></clipPath><clipPath id="terminal-1714900664-line-1"><rect width="1268.8" height="24.65" x="0" y="25.9"/></clipPath><clipPath id="terminal-1714900664-line-2"><rect width="1268.8" height="24.65" x="0" y="50.3"/></clipPath><clipPath id="terminal-1714900664-line-3"><rect width="1268.8" height="24.65" x="0" y="74.7"/></clipPath><clipPath id="terminal-1714900664-line-4"><rect width="1268.8" height="24.65" x="0" y="99.1"/></clipPath><clipPath id="terminal-1714900664-line-5"><rect width="1268.8" height="24.65" x="0" y="123.5"/></clipPath><clipPath id="terminal-1714900664-line-6"><rect width="1268.8" height="24.65" x="0" y="147.9"/></clipPath><clipPath id="terminal-1714900664-line-7"><rect width="1268.8" height="24.65" x="0" y="172.3"/></clipPath><clipPath id="terminal-1714900664-line-8"><rect width="1268.8" height="24.65" x="0" y="196.7"/></clipPath><clipPath id="terminal-1714900664-line-9"><rect width="1268.8" height="24.65" x="0" y="221.1"/></clipPath><clipPath id="terminal-1714900664-line-10"><rect width="1268.8" height="24.65" x="0" y="245.5"/></clipPath><clipPath id="terminal-1714900664-line-11"><rect width="1268.8" height="24.65" x="0" y="269.9"/></clipPath><clipPath id="terminal-1714900664-line-12"><rect width="1268.8" height="24.65" x="0" y="294.3"/></clipPath><clipPath id="terminal-1714900664-line-13"><rect width="1268.8" height="24.65" x="0" y="318.7"/></clipPath><clipPath id="terminal-1714900664-line-14"><rect width="1268.8" height="24.65" x="0" y="343.1"/></clipPath><clipPath id="terminal-1714900664-line-15"><rect width="1268.8" height="24.65" x="0" y="367.5"/></clipPath><clipPath id="terminal-1714900664-line-16"><rect width="1268.8" height="24.65" x="0" y="391.9"/></clipPath><clipPath id="terminal-1714900664-line-17"><rect width="1268.8" height="24.65" x="0" y="416.3"/></clipPath><clipPath id="terminal-1714900664-line-18"><rect width="1268.8" height="24.65" x="0" y="440.7"/></clipPath><clipPath id="terminal-1714900664-line-19"><rect width="1268.8" height="24.65" x="0" y="465.1"/></clipPath><clipPath id="terminal-1714900664-line-20"><rect width="1268.8" height="24.65" x="0" y="489.5"/></clipPath><clipPath id="terminal-1714900664-line-21"><rect width="1268.8" height="24.65" x="0" y="513.9"/></clipPath><clipPath id="terminal-1714900664-line-22"><rect width="1268.8" height="24.65" x="0" y="538.3"/></clipPath><clipPath id="terminal-1714900664-line-23"><rect width="1268.8" height="24.65" x="0" y="562.7"/></clipPath><clipPath id="terminal-1714900664-line-24"><rect width="1268.8" height="24.65" x="0" y="587.1"/></clipPath><clipPath id="terminal-1714900664-line-25"><rect width="1268.8" height="24.65" x="0" y="611.5"/></clipPath><clipPath id="terminal-1714900664-line-26"><rect width="1268.8" height="24.65" x="0" y="635.9"/></clipPath><clipPath id="terminal-1714900664-line-27"><rect width="1268.8" height="24.65" x="0" y="660.3"/></clipPath><clipPath id="terminal-1714900664-line-28"><rect width="1268.8" height="24.65" x="0" y="684.7"/></clipPath><clipPath id="terminal-1714900664-line-29"><rect width="1268.8" height="24.65" x="0" y="709.1"/></clipPath><clipPath id="terminal-1714900664-line-30"><rect width="1268.8" height="24.65" x="0" y="733.5"/></clipPath><clipPath id="terminal-1714900664-line-31"><rect width="1268.8" height="24.65" x="0" y="757.9"/></clipPath><clipPath id="terminal-1714900664-line-32"><rect width="1268.8" height="24.65" x="0" y="782.3"/></clipPath></defs><rect width="1285" height="877.6" x="1" y="1" fill="#292929" stroke="rgba(255,255,255,0.35)" stroke-width="1" rx="8"/><text x="642" y="27" fill="#c5c8c6" class="terminal-1714900664-title" text-anchor="middle">DeerFlow TUI — slash palette</text><g transform="translate(26,22)"><circle cx="0" cy="0" r="7" fill="#ff5f57"/><circle cx="22" cy="0" r="7" fill="#febc2e"/><circle cx="44" cy="0" r="7" fill="#28c840"/></g><g clip-path="url(#terminal-1714900664-clip-terminal)" transform="translate(9, 41)"><rect width="12.2" height="24.65" x="0" y="1.5" fill="#1f2335" shape-rendering="crispEdges"/><rect width="122" height="24.65" x="12.2" y="1.5" fill="#7dcfff" shape-rendering="crispEdges"/><rect width="24.4" height="24.65" x="134.2" y="1.5" fill="#1f2335" shape-rendering="crispEdges"/><rect width="183" height="24.65" x="158.6" y="1.5" fill="#1f2335" shape-rendering="crispEdges"/><rect width="61" height="24.65" x="341.6" y="1.5" fill="#1f2335" shape-rendering="crispEdges"/><rect width="183" height="24.65" x="402.6" y="1.5" fill="#1f2335" shape-rendering="crispEdges"/><rect width="61" height="24.65" x="585.6" y="1.5" fill="#1f2335" shape-rendering="crispEdges"/><rect width="488" height="24.65" x="646.6" y="1.5" fill="#1f2335" shape-rendering="crispEdges"/><rect width="61" height="24.65" x="1134.6" y="1.5" fill="#1f2335" shape-rendering="crispEdges"/><rect width="24.4" height="24.65" x="1195.6" y="1.5" fill="#1f2335" shape-rendering="crispEdges"/><rect width="36.6" height="24.65" x="1220" y="1.5" fill="#1f2335" shape-rendering="crispEdges"/><rect width="12.2" height="24.65" x="1256.6" y="1.5" fill="#1f2335" shape-rendering="crispEdges"/><rect width="1244.4" height="24.65" x="0" y="25.9" fill="#1a1b26" shape-rendering="crispEdges"/><rect width="24.4" height="24.65" x="1244.4" y="25.9" fill="#1a1b26" shape-rendering="crispEdges"/><rect width="24.4" height="24.65" x="0" y="50.3" fill="#1a1b26" shape-rendering="crispEdges"/><rect width="24.4" height="24.65" x="24.4" y="50.3" fill="#1a1b26" shape-rendering="crispEdges"/><rect width="500.2" height="24.65" x="48.8" y="50.3" fill="#1a1b26" shape-rendering="crispEdges"/><rect width="671" height="24.65" x="549" y="50.3" fill="#1a1b26" shape-rendering="crispEdges"/><rect width="24.4" height="24.65" x="1220" y="50.3" fill="#1a1b26" shape-rendering="crispEdges"/><rect width="24.4" height="24.65" x="1244.4" y="50.3" fill="#1a1b26" shape-rendering="crispEdges"/><rect width="24.4" height="24.65" x="0" y="74.7" fill="#1a1b26" shape-rendering="crispEdges"/><rect width="0" height="24.65" x="24.4" y="74.7" fill="#1a1b26" shape-rendering="crispEdges"/><rect width="1195.6" height="24.65" x="24.4" y="74.7" fill="#1a1b26" shape-rendering="crispEdges"/><rect width="24.4" height="24.65" x="1220" y="74.7" fill="#1a1b26" shape-rendering="crispEdges"/><rect width="24.4" height="24.65" x="1244.4" y="74.7" fill="#1a1b26" shape-rendering="crispEdges"/><rect width="24.4" height="24.65" x="0" y="99.1" fill="#1a1b26" shape-rendering="crispEdges"/><rect width="24.4" height="24.65" x="24.4" y="99.1" fill="#1a1b26" shape-rendering="crispEdges"/><rect width="756.4" height="24.65" x="48.8" y="99.1" fill="#1a1b26" shape-rendering="crispEdges"/><rect width="414.8" height="24.65" x="805.2" y="99.1" fill="#1a1b26" shape-rendering="crispEdges"/><rect width="24.4" height="24.65" x="1220" y="99.1" fill="#1a1b26" shape-rendering="crispEdges"/><rect width="24.4" height="24.65" x="1244.4" y="99.1" fill="#1a1b26" shape-rendering="crispEdges"/><rect width="24.4" height="24.65" x="0" y="123.5" fill="#1a1b26" shape-rendering="crispEdges"/><rect width="0" height="24.65" x="24.4" y="123.5" fill="#1a1b26" shape-rendering="crispEdges"/><rect width="1195.6" height="24.65" x="24.4" y="123.5" fill="#1a1b26" shape-rendering="crispEdges"/><rect width="24.4" height="24.65" x="1220" y="123.5" fill="#1a1b26" shape-rendering="crispEdges"/><rect width="24.4" height="24.65" x="1244.4" y="123.5" fill="#1a1b26" shape-rendering="crispEdges"/><rect width="24.4" height="24.65" x="0" y="147.9" fill="#1a1b26" shape-rendering="crispEdges"/><rect width="48.8" height="24.65" x="24.4" y="147.9" fill="#1a1b26" shape-rendering="crispEdges"/><rect width="48.8" height="24.65" x="73.2" y="147.9" fill="#1a1b26" shape-rendering="crispEdges"/><rect width="292.8" height="24.65" x="122" y="147.9" fill="#1a1b26" shape-rendering="crispEdges"/><rect width="48.8" height="24.65" x="414.8" y="147.9" fill="#1a1b26" shape-rendering="crispEdges"/><rect width="756.4" height="24.65" x="463.6" y="147.9" fill="#1a1b26" shape-rendering="crispEdges"/><rect width="24.4" height="24.65" x="1220" y="147.9" fill="#1a1b26" shape-rendering="crispEdges"/><rect width="24.4" height="24.65" x="1244.4" y="147.9" fill="#1a1b26" shape-rendering="crispEdges"/><rect width="24.4" height="24.65" x="0" y="172.3" fill="#1a1b26" shape-rendering="crispEdges"/><rect width="805.2" height="24.65" x="24.4" y="172.3" fill="#1a1b26" shape-rendering="crispEdges"/><rect width="390.4" height="24.65" x="829.6" y="172.3" fill="#1a1b26" shape-rendering="crispEdges"/><rect width="24.4" height="24.65" x="1220" y="172.3" fill="#1a1b26" shape-rendering="crispEdges"/><rect width="24.4" height="24.65" x="1244.4" y="172.3" fill="#1a1b26" shape-rendering="crispEdges"/><rect width="24.4" height="24.65" x="0" y="196.7" fill="#1a1b26" shape-rendering="crispEdges"/><rect width="0" height="24.65" x="24.4" y="196.7" fill="#1a1b26" shape-rendering="crispEdges"/><rect width="1195.6" height="24.65" x="24.4" y="196.7" fill="#1a1b26" shape-rendering="crispEdges"/><rect width="24.4" height="24.65" x="1220" y="196.7" fill="#1a1b26" shape-rendering="crispEdges"/><rect width="24.4" height="24.65" x="1244.4" y="196.7" fill="#1a1b26" shape-rendering="crispEdges"/><rect width="24.4" height="24.65" x="0" y="221.1" fill="#1a1b26" shape-rendering="crispEdges"/><rect width="48.8" height="24.65" x="24.4" y="221.1" fill="#1a1b26" shape-rendering="crispEdges"/><rect width="48.8" height="24.65" x="73.2" y="221.1" fill="#1a1b26" shape-rendering="crispEdges"/><rect width="439.2" height="24.65" x="122" y="221.1" fill="#1a1b26" shape-rendering="crispEdges"/><rect width="48.8" height="24.65" x="561.2" y="221.1" fill="#1a1b26" shape-rendering="crispEdges"/><rect width="610" height="24.65" x="610" y="221.1" fill="#1a1b26" shape-rendering="crispEdges"/><rect width="24.4" height="24.65" x="1220" y="221.1" fill="#1a1b26" shape-rendering="crispEdges"/><rect width="24.4" height="24.65" x="1244.4" y="221.1" fill="#1a1b26" shape-rendering="crispEdges"/><rect width="24.4" height="24.65" x="0" y="245.5" fill="#1a1b26" shape-rendering="crispEdges"/><rect width="256.2" height="24.65" x="24.4" y="245.5" fill="#1a1b26" shape-rendering="crispEdges"/><rect width="939.4" height="24.65" x="280.6" y="245.5" fill="#1a1b26" shape-rendering="crispEdges"/><rect width="24.4" height="24.65" x="1220" y="245.5" fill="#1a1b26" shape-rendering="crispEdges"/><rect width="24.4" height="24.65" x="1244.4" y="245.5" fill="#1a1b26" shape-rendering="crispEdges"/><rect width="24.4" height="24.65" x="0" y="269.9" fill="#1a1b26" shape-rendering="crispEdges"/><rect width="0" height="24.65" x="24.4" y="269.9" fill="#1a1b26" shape-rendering="crispEdges"/><rect width="1195.6" height="24.65" x="24.4" y="269.9" fill="#1a1b26" shape-rendering="crispEdges"/><rect width="24.4" height="24.65" x="1220" y="269.9" fill="#1a1b26" shape-rendering="crispEdges"/><rect width="24.4" height="24.65" x="1244.4" y="269.9" fill="#1a1b26" shape-rendering="crispEdges"/><rect width="24.4" height="24.65" x="0" y="294.3" fill="#1a1b26" shape-rendering="crispEdges"/><rect width="24.4" height="24.65" x="24.4" y="294.3" fill="#1a1b26" shape-rendering="crispEdges"/><rect width="866.2" height="24.65" x="48.8" y="294.3" fill="#1a1b26" shape-rendering="crispEdges"/><rect width="305" height="24.65" x="915" y="294.3" fill="#1a1b26" shape-rendering="crispEdges"/><rect width="24.4" height="24.65" x="1220" y="294.3" fill="#1a1b26" shape-rendering="crispEdges"/><rect width="24.4" height="24.65" x="1244.4" y="294.3" fill="#1a1b26" shape-rendering="crispEdges"/><rect width="24.4" height="24.65" x="0" y="318.7" fill="#1a1b26" shape-rendering="crispEdges"/><rect width="1195.6" height="24.65" x="24.4" y="318.7" fill="#1a1b26" shape-rendering="crispEdges"/><rect width="24.4" height="24.65" x="1220" y="318.7" fill="#1a1b26" shape-rendering="crispEdges"/><rect width="24.4" height="24.65" x="1244.4" y="318.7" fill="#1a1b26" shape-rendering="crispEdges"/><rect width="24.4" height="24.65" x="0" y="343.1" fill="#1a1b26" shape-rendering="crispEdges"/><rect width="1195.6" height="24.65" x="24.4" y="343.1" fill="#1a1b26" shape-rendering="crispEdges"/><rect width="24.4" height="24.65" x="1220" y="343.1" fill="#1a1b26" shape-rendering="crispEdges"/><rect width="24.4" height="24.65" x="1244.4" y="343.1" fill="#1a1b26" shape-rendering="crispEdges"/><rect width="24.4" height="24.65" x="0" y="367.5" fill="#1a1b26" shape-rendering="crispEdges"/><rect width="1195.6" height="24.65" x="24.4" y="367.5" fill="#1a1b26" shape-rendering="crispEdges"/><rect width="24.4" height="24.65" x="1220" y="367.5" fill="#1a1b26" shape-rendering="crispEdges"/><rect width="24.4" height="24.65" x="1244.4" y="367.5" fill="#1a1b26" shape-rendering="crispEdges"/><rect width="24.4" height="24.65" x="0" y="391.9" fill="#1a1b26" shape-rendering="crispEdges"/><rect width="1195.6" height="24.65" x="24.4" y="391.9" fill="#1a1b26" shape-rendering="crispEdges"/><rect width="24.4" height="24.65" x="1220" y="391.9" fill="#1a1b26" shape-rendering="crispEdges"/><rect width="24.4" height="24.65" x="1244.4" y="391.9" fill="#1a1b26" shape-rendering="crispEdges"/><rect width="24.4" height="24.65" x="0" y="416.3" fill="#1a1b26" shape-rendering="crispEdges"/><rect width="1195.6" height="24.65" x="24.4" y="416.3" fill="#1a1b26" shape-rendering="crispEdges"/><rect width="24.4" height="24.65" x="1220" y="416.3" fill="#1a1b26" shape-rendering="crispEdges"/><rect width="24.4" height="24.65" x="1244.4" y="416.3" fill="#1a1b26" shape-rendering="crispEdges"/><rect width="24.4" height="24.65" x="0" y="440.7" fill="#1a1b26" shape-rendering="crispEdges"/><rect width="1195.6" height="24.65" x="24.4" y="440.7" fill="#1a1b26" shape-rendering="crispEdges"/><rect width="24.4" height="24.65" x="1220" y="440.7" fill="#1a1b26" shape-rendering="crispEdges"/><rect width="24.4" height="24.65" x="1244.4" y="440.7" fill="#1a1b26" shape-rendering="crispEdges"/><rect width="1244.4" height="24.65" x="0" y="465.1" fill="#1a1b26" shape-rendering="crispEdges"/><rect width="24.4" height="24.65" x="1244.4" y="465.1" fill="#1a1b26" shape-rendering="crispEdges"/><rect width="12.2" height="24.65" x="0" y="489.5" fill="#1f2335" shape-rendering="crispEdges"/><rect width="85.4" height="24.65" x="12.2" y="489.5" fill="#1f2335" shape-rendering="crispEdges"/><rect width="24.4" height="24.65" x="97.6" y="489.5" fill="#1f2335" shape-rendering="crispEdges"/><rect width="195.2" height="24.65" x="122" y="489.5" fill="#1f2335" shape-rendering="crispEdges"/><rect width="36.6" height="24.65" x="317.2" y="489.5" fill="#1f2335" shape-rendering="crispEdges"/><rect width="183" height="24.65" x="353.8" y="489.5" fill="#1f2335" shape-rendering="crispEdges"/><rect width="36.6" height="24.65" x="536.8" y="489.5" fill="#1f2335" shape-rendering="crispEdges"/><rect width="183" height="24.65" x="573.4" y="489.5" fill="#1f2335" shape-rendering="crispEdges"/><rect width="36.6" height="24.65" x="756.4" y="489.5" fill="#1f2335" shape-rendering="crispEdges"/><rect width="97.6" height="24.65" x="793" y="489.5" fill="#1f2335" shape-rendering="crispEdges"/><rect width="366" height="24.65" x="890.6" y="489.5" fill="#1f2335" shape-rendering="crispEdges"/><rect width="12.2" height="24.65" x="1256.6" y="489.5" fill="#1f2335" shape-rendering="crispEdges"/><rect width="12.2" height="24.65" x="0" y="513.9" fill="#1a1b26" shape-rendering="crispEdges"/><rect width="12.2" height="24.65" x="12.2" y="513.9" fill="#1f2335" shape-rendering="crispEdges"/><rect width="1220" height="24.65" x="24.4" y="513.9" fill="#1f2335" shape-rendering="crispEdges"/><rect width="12.2" height="24.65" x="1244.4" y="513.9" fill="#1f2335" shape-rendering="crispEdges"/><rect width="12.2" height="24.65" x="1256.6" y="513.9" fill="#1a1b26" shape-rendering="crispEdges"/><rect width="12.2" height="24.65" x="0" y="538.3" fill="#1a1b26" shape-rendering="crispEdges"/><rect width="12.2" height="24.65" x="12.2" y="538.3" fill="#1f2335" shape-rendering="crispEdges"/><rect width="12.2" height="24.65" x="24.4" y="538.3" fill="#1f2335" shape-rendering="crispEdges"/><rect width="24.4" height="24.65" x="36.6" y="538.3" fill="#1f2335" shape-rendering="crispEdges"/><rect width="73.2" height="24.65" x="61" y="538.3" fill="#1f2335" shape-rendering="crispEdges"/><rect width="24.4" height="24.65" x="134.2" y="538.3" fill="#1f2335" shape-rendering="crispEdges"/><rect width="256.2" height="24.65" x="158.6" y="538.3" fill="#1f2335" shape-rendering="crispEdges"/><rect width="817.4" height="24.65" x="414.8" y="538.3" fill="#1f2335" shape-rendering="crispEdges"/><rect width="12.2" height="24.65" x="1232.2" y="538.3" fill="#1f2335" shape-rendering="crispEdges"/><rect width="12.2" height="24.65" x="1244.4" y="538.3" fill="#1f2335" shape-rendering="crispEdges"/><rect width="12.2" height="24.65" x="1256.6" y="538.3" fill="#1a1b26" shape-rendering="crispEdges"/><rect width="12.2" height="24.65" x="0" y="562.7" fill="#1a1b26" shape-rendering="crispEdges"/><rect width="12.2" height="24.65" x="12.2" y="562.7" fill="#1f2335" shape-rendering="crispEdges"/><rect width="12.2" height="24.65" x="24.4" y="562.7" fill="#1f2335" shape-rendering="crispEdges"/><rect width="24.4" height="24.65" x="36.6" y="562.7" fill="#1f2335" shape-rendering="crispEdges"/><rect width="48.8" height="24.65" x="61" y="562.7" fill="#1f2335" shape-rendering="crispEdges"/><rect width="24.4" height="24.65" x="109.8" y="562.7" fill="#1f2335" shape-rendering="crispEdges"/><rect width="268.4" height="24.65" x="134.2" y="562.7" fill="#1f2335" shape-rendering="crispEdges"/><rect width="829.6" height="24.65" x="402.6" y="562.7" fill="#1f2335" shape-rendering="crispEdges"/><rect width="12.2" height="24.65" x="1232.2" y="562.7" fill="#1f2335" shape-rendering="crispEdges"/><rect width="12.2" height="24.65" x="1244.4" y="562.7" fill="#1f2335" shape-rendering="crispEdges"/><rect width="12.2" height="24.65" x="1256.6" y="562.7" fill="#1a1b26" shape-rendering="crispEdges"/><rect width="12.2" height="24.65" x="0" y="587.1" fill="#1a1b26" shape-rendering="crispEdges"/><rect width="12.2" height="24.65" x="12.2" y="587.1" fill="#1f2335" shape-rendering="crispEdges"/><rect width="12.2" height="24.65" x="24.4" y="587.1" fill="#1f2335" shape-rendering="crispEdges"/><rect width="24.4" height="24.65" x="36.6" y="587.1" fill="#1f2335" shape-rendering="crispEdges"/><rect width="85.4" height="24.65" x="61" y="587.1" fill="#1f2335" shape-rendering="crispEdges"/><rect width="24.4" height="24.65" x="146.4" y="587.1" fill="#1f2335" shape-rendering="crispEdges"/><rect width="451.4" height="24.65" x="170.8" y="587.1" fill="#1f2335" shape-rendering="crispEdges"/><rect width="610" height="24.65" x="622.2" y="587.1" fill="#1f2335" shape-rendering="crispEdges"/><rect width="12.2" height="24.65" x="1232.2" y="587.1" fill="#1f2335" shape-rendering="crispEdges"/><rect width="12.2" height="24.65" x="1244.4" y="587.1" fill="#1f2335" shape-rendering="crispEdges"/><rect width="12.2" height="24.65" x="1256.6" y="587.1" fill="#1a1b26" shape-rendering="crispEdges"/><rect width="12.2" height="24.65" x="0" y="611.5" fill="#1a1b26" shape-rendering="crispEdges"/><rect width="12.2" height="24.65" x="12.2" y="611.5" fill="#1f2335" shape-rendering="crispEdges"/><rect width="12.2" height="24.65" x="24.4" y="611.5" fill="#1f2335" shape-rendering="crispEdges"/><rect width="24.4" height="24.65" x="36.6" y="611.5" fill="#1f2335" shape-rendering="crispEdges"/><rect width="85.4" height="24.65" x="61" y="611.5" fill="#1f2335" shape-rendering="crispEdges"/><rect width="24.4" height="24.65" x="146.4" y="611.5" fill="#1f2335" shape-rendering="crispEdges"/><rect width="366" height="24.65" x="170.8" y="611.5" fill="#1f2335" shape-rendering="crispEdges"/><rect width="695.4" height="24.65" x="536.8" y="611.5" fill="#1f2335" shape-rendering="crispEdges"/><rect width="12.2" height="24.65" x="1232.2" y="611.5" fill="#1f2335" shape-rendering="crispEdges"/><rect width="12.2" height="24.65" x="1244.4" y="611.5" fill="#1f2335" shape-rendering="crispEdges"/><rect width="12.2" height="24.65" x="1256.6" y="611.5" fill="#1a1b26" shape-rendering="crispEdges"/><rect width="12.2" height="24.65" x="0" y="635.9" fill="#1a1b26" shape-rendering="crispEdges"/><rect width="12.2" height="24.65" x="12.2" y="635.9" fill="#1f2335" shape-rendering="crispEdges"/><rect width="12.2" height="24.65" x="24.4" y="635.9" fill="#1f2335" shape-rendering="crispEdges"/><rect width="24.4" height="24.65" x="36.6" y="635.9" fill="#1f2335" shape-rendering="crispEdges"/><rect width="61" height="24.65" x="61" y="635.9" fill="#1f2335" shape-rendering="crispEdges"/><rect width="24.4" height="24.65" x="122" y="635.9" fill="#1f2335" shape-rendering="crispEdges"/><rect width="353.8" height="24.65" x="146.4" y="635.9" fill="#1f2335" shape-rendering="crispEdges"/><rect width="732" height="24.65" x="500.2" y="635.9" fill="#1f2335" shape-rendering="crispEdges"/><rect width="12.2" height="24.65" x="1232.2" y="635.9" fill="#1f2335" shape-rendering="crispEdges"/><rect width="12.2" height="24.65" x="1244.4" y="635.9" fill="#1f2335" shape-rendering="crispEdges"/><rect width="12.2" height="24.65" x="1256.6" y="635.9" fill="#1a1b26" shape-rendering="crispEdges"/><rect width="12.2" height="24.65" x="0" y="660.3" fill="#1a1b26" shape-rendering="crispEdges"/><rect width="12.2" height="24.65" x="12.2" y="660.3" fill="#1f2335" shape-rendering="crispEdges"/><rect width="12.2" height="24.65" x="24.4" y="660.3" fill="#1f2335" shape-rendering="crispEdges"/><rect width="24.4" height="24.65" x="36.6" y="660.3" fill="#1f2335" shape-rendering="crispEdges"/><rect width="73.2" height="24.65" x="61" y="660.3" fill="#1f2335" shape-rendering="crispEdges"/><rect width="24.4" height="24.65" x="134.2" y="660.3" fill="#1f2335" shape-rendering="crispEdges"/><rect width="439.2" height="24.65" x="158.6" y="660.3" fill="#1f2335" shape-rendering="crispEdges"/><rect width="634.4" height="24.65" x="597.8" y="660.3" fill="#1f2335" shape-rendering="crispEdges"/><rect width="12.2" height="24.65" x="1232.2" y="660.3" fill="#1f2335" shape-rendering="crispEdges"/><rect width="12.2" height="24.65" x="1244.4" y="660.3" fill="#1f2335" shape-rendering="crispEdges"/><rect width="12.2" height="24.65" x="1256.6" y="660.3" fill="#1a1b26" shape-rendering="crispEdges"/><rect width="12.2" height="24.65" x="0" y="684.7" fill="#1a1b26" shape-rendering="crispEdges"/><rect width="12.2" height="24.65" x="12.2" y="684.7" fill="#1f2335" shape-rendering="crispEdges"/><rect width="12.2" height="24.65" x="24.4" y="684.7" fill="#1f2335" shape-rendering="crispEdges"/><rect width="24.4" height="24.65" x="36.6" y="684.7" fill="#1f2335" shape-rendering="crispEdges"/><rect width="48.8" height="24.65" x="61" y="684.7" fill="#1f2335" shape-rendering="crispEdges"/><rect width="24.4" height="24.65" x="109.8" y="684.7" fill="#1f2335" shape-rendering="crispEdges"/><rect width="280.6" height="24.65" x="134.2" y="684.7" fill="#1f2335" shape-rendering="crispEdges"/><rect width="817.4" height="24.65" x="414.8" y="684.7" fill="#1f2335" shape-rendering="crispEdges"/><rect width="12.2" height="24.65" x="1232.2" y="684.7" fill="#1f2335" shape-rendering="crispEdges"/><rect width="12.2" height="24.65" x="1244.4" y="684.7" fill="#1f2335" shape-rendering="crispEdges"/><rect width="12.2" height="24.65" x="1256.6" y="684.7" fill="#1a1b26" shape-rendering="crispEdges"/><rect width="12.2" height="24.65" x="0" y="709.1" fill="#1a1b26" shape-rendering="crispEdges"/><rect width="12.2" height="24.65" x="12.2" y="709.1" fill="#1f2335" shape-rendering="crispEdges"/><rect width="1220" height="24.65" x="24.4" y="709.1" fill="#1f2335" shape-rendering="crispEdges"/><rect width="12.2" height="24.65" x="1244.4" y="709.1" fill="#1f2335" shape-rendering="crispEdges"/><rect width="12.2" height="24.65" x="1256.6" y="709.1" fill="#1a1b26" shape-rendering="crispEdges"/><rect width="12.2" height="24.65" x="0" y="733.5" fill="#1a1b26" shape-rendering="crispEdges"/><rect width="12.2" height="24.65" x="12.2" y="733.5" fill="#282c3d" shape-rendering="crispEdges"/><rect width="1220" height="24.65" x="24.4" y="733.5" fill="#282c3d" shape-rendering="crispEdges"/><rect width="12.2" height="24.65" x="1244.4" y="733.5" fill="#282c3d" shape-rendering="crispEdges"/><rect width="12.2" height="24.65" x="1256.6" y="733.5" fill="#1a1b26" shape-rendering="crispEdges"/><rect width="12.2" height="24.65" x="0" y="757.9" fill="#1a1b26" shape-rendering="crispEdges"/><rect width="12.2" height="24.65" x="12.2" y="757.9" fill="#282c3d" shape-rendering="crispEdges"/><rect width="24.4" height="24.65" x="24.4" y="757.9" fill="#282c3d" shape-rendering="crispEdges"/><rect width="24.4" height="24.65" x="48.8" y="757.9" fill="#282c3d" shape-rendering="crispEdges"/><rect width="12.2" height="24.65" x="73.2" y="757.9" fill="#e0e0e0" shape-rendering="crispEdges"/><rect width="1134.6" height="24.65" x="85.4" y="757.9" fill="#282c3d" shape-rendering="crispEdges"/><rect width="24.4" height="24.65" x="1220" y="757.9" fill="#282c3d" shape-rendering="crispEdges"/><rect width="12.2" height="24.65" x="1244.4" y="757.9" fill="#282c3d" shape-rendering="crispEdges"/><rect width="12.2" height="24.65" x="1256.6" y="757.9" fill="#1a1b26" shape-rendering="crispEdges"/><rect width="12.2" height="24.65" x="0" y="782.3" fill="#1a1b26" shape-rendering="crispEdges"/><rect width="12.2" height="24.65" x="12.2" y="782.3" fill="#282c3d" shape-rendering="crispEdges"/><rect width="1220" height="24.65" x="24.4" y="782.3" fill="#282c3d" shape-rendering="crispEdges"/><rect width="12.2" height="24.65" x="1244.4" y="782.3" fill="#282c3d" shape-rendering="crispEdges"/><rect width="12.2" height="24.65" x="1256.6" y="782.3" fill="#1a1b26" shape-rendering="crispEdges"/><rect width="1268.8" height="24.65" x="0" y="806.7" fill="#1a1b26" shape-rendering="crispEdges"/><g class="terminal-1714900664-matrix"><text x="12.2" y="20" class="terminal-1714900664-r2" clip-path="url(#terminal-1714900664-line-0)" textLength="122">DeerFlow</text><text x="158.6" y="20" class="terminal-1714900664-r4" clip-path="url(#terminal-1714900664-line-0)" textLength="183">claude-opus-4.8</text><text x="341.6" y="20" class="terminal-1714900664-r5" clip-path="url(#terminal-1714900664-line-0)" textLength="61">·</text><text x="402.6" y="20" class="terminal-1714900664-r6" clip-path="url(#terminal-1714900664-line-0)" textLength="183">thread 4f2a8c1d</text><text x="585.6" y="20" class="terminal-1714900664-r5" clip-path="url(#terminal-1714900664-line-0)" textLength="61">·</text><text x="646.6" y="20" class="terminal-1714900664-r5" clip-path="url(#terminal-1714900664-line-0)" textLength="488">/Users/taohe/workspace/deer-flow/backend</text><text x="1134.6" y="20" class="terminal-1714900664-r5" clip-path="url(#terminal-1714900664-line-0)" textLength="61">·</text><text x="1195.6" y="20" class="terminal-1714900664-r5" clip-path="url(#terminal-1714900664-line-0)" textLength="24.4">12</text><text x="24.4" y="68.8" class="terminal-1714900664-r7" clip-path="url(#terminal-1714900664-line-2)" textLength="24.4">›</text><text x="48.8" y="68.8" class="terminal-1714900664-r7" clip-path="url(#terminal-1714900664-line-2)" textLength="500.2">Add a /usage panel to the TUI status line</text><text x="24.4" y="117.6" class="terminal-1714900664-r8" clip-path="url(#terminal-1714900664-line-4)" textLength="24.4">●</text><text x="48.8" y="117.6" class="terminal-1714900664-r3" clip-path="url(#terminal-1714900664-line-4)" textLength="756.4">I&apos;ll wire token usage into the status renderer and add a test.</text><text x="24.4" y="166.4" class="terminal-1714900664-r9" clip-path="url(#terminal-1714900664-line-6)" textLength="48.8">⚙</text><text x="73.2" y="166.4" class="terminal-1714900664-r10" clip-path="url(#terminal-1714900664-line-6)" textLength="48.8">Read</text><text x="122" y="166.4" class="terminal-1714900664-r5" clip-path="url(#terminal-1714900664-line-6)" textLength="292.8">deerflow/tui/render.py</text><text x="414.8" y="166.4" class="terminal-1714900664-r11" clip-path="url(#terminal-1714900664-line-6)" textLength="48.8">✓</text><text x="24.4" y="190.8" class="terminal-1714900664-r5" clip-path="url(#terminal-1714900664-line-7)" textLength="805.2">def render_status(state, *, model, thread_label, spinner): ...</text><text x="24.4" y="239.6" class="terminal-1714900664-r9" clip-path="url(#terminal-1714900664-line-9)" textLength="48.8">⚙</text><text x="73.2" y="239.6" class="terminal-1714900664-r10" clip-path="url(#terminal-1714900664-line-9)" textLength="48.8">Bash</text><text x="122" y="239.6" class="terminal-1714900664-r5" clip-path="url(#terminal-1714900664-line-9)" textLength="439.2">pytest tests/test_tui_render.py -q</text><text x="561.2" y="239.6" class="terminal-1714900664-r11" clip-path="url(#terminal-1714900664-line-9)" textLength="48.8">✓</text><text x="24.4" y="264" class="terminal-1714900664-r5" clip-path="url(#terminal-1714900664-line-10)" textLength="256.2">5 passed in 0.10s</text><text x="24.4" y="312.8" class="terminal-1714900664-r8" clip-path="url(#terminal-1714900664-line-12)" textLength="24.4">●</text><text x="48.8" y="312.8" class="terminal-1714900664-r3" clip-path="url(#terminal-1714900664-line-12)" textLength="866.2">Done. The status line now shows live token usage and an interrupt hint.</text><text x="12.2" y="508" class="terminal-1714900664-r12" clip-path="url(#terminal-1714900664-line-20)" textLength="85.4">● ready</text><text x="122" y="508" class="terminal-1714900664-r13" clip-path="url(#terminal-1714900664-line-20)" textLength="195.2">Add /usage panel</text><text x="353.8" y="508" class="terminal-1714900664-r14" clip-path="url(#terminal-1714900664-line-20)" textLength="183">claude-opus-4.8</text><text x="573.4" y="508" class="terminal-1714900664-r6" clip-path="url(#terminal-1714900664-line-20)" textLength="183">thread 4f2a8c1d</text><text x="793" y="508" class="terminal-1714900664-r5" clip-path="url(#terminal-1714900664-line-20)" textLength="97.6">2048 tok</text><text x="12.2" y="532.4" class="terminal-1714900664-r15" clip-path="url(#terminal-1714900664-line-21)" textLength="12.2">╭</text><text x="24.4" y="532.4" class="terminal-1714900664-r15" clip-path="url(#terminal-1714900664-line-21)" textLength="1220">────────────────────────────────────────────────────────────────────────────────────────────────────</text><text x="1244.4" y="532.4" class="terminal-1714900664-r15" clip-path="url(#terminal-1714900664-line-21)" textLength="12.2">╮</text><text x="12.2" y="556.8" class="terminal-1714900664-r15" clip-path="url(#terminal-1714900664-line-22)" textLength="12.2">│</text><text x="36.6" y="556.8" class="terminal-1714900664-r14" clip-path="url(#terminal-1714900664-line-22)" textLength="24.4">▌</text><text x="61" y="556.8" class="terminal-1714900664-r4" clip-path="url(#terminal-1714900664-line-22)" textLength="73.2">/model</text><text x="158.6" y="556.8" class="terminal-1714900664-r5" clip-path="url(#terminal-1714900664-line-22)" textLength="256.2">Open the model picker</text><text x="1244.4" y="556.8" class="terminal-1714900664-r15" clip-path="url(#terminal-1714900664-line-22)" textLength="12.2">│</text><text x="12.2" y="581.2" class="terminal-1714900664-r15" clip-path="url(#terminal-1714900664-line-23)" textLength="12.2">│</text><text x="61" y="581.2" class="terminal-1714900664-r3" clip-path="url(#terminal-1714900664-line-23)" textLength="48.8">/mcp</text><text x="134.2" y="581.2" class="terminal-1714900664-r5" clip-path="url(#terminal-1714900664-line-23)" textLength="268.4">Show MCP server status</text><text x="1244.4" y="581.2" class="terminal-1714900664-r15" clip-path="url(#terminal-1714900664-line-23)" textLength="12.2">│</text><text x="12.2" y="605.6" class="terminal-1714900664-r15" clip-path="url(#terminal-1714900664-line-24)" textLength="12.2">│</text><text x="61" y="605.6" class="terminal-1714900664-r3" clip-path="url(#terminal-1714900664-line-24)" textLength="85.4">/memory</text><text x="170.8" y="605.6" class="terminal-1714900664-r5" clip-path="url(#terminal-1714900664-line-24)" textLength="451.4">Show memory status and injected facts</text><text x="1244.4" y="605.6" class="terminal-1714900664-r15" clip-path="url(#terminal-1714900664-line-24)" textLength="12.2">│</text><text x="12.2" y="630" class="terminal-1714900664-r15" clip-path="url(#terminal-1714900664-line-25)" textLength="12.2">│</text><text x="61" y="630" class="terminal-1714900664-r3" clip-path="url(#terminal-1714900664-line-25)" textLength="85.4">/resume</text><text x="170.8" y="630" class="terminal-1714900664-r5" clip-path="url(#terminal-1714900664-line-25)" textLength="366">Resume a thread by id or title</text><text x="1244.4" y="630" class="terminal-1714900664-r15" clip-path="url(#terminal-1714900664-line-25)" textLength="12.2">│</text><text x="12.2" y="654.4" class="terminal-1714900664-r15" clip-path="url(#terminal-1714900664-line-26)" textLength="12.2">│</text><text x="61" y="654.4" class="terminal-1714900664-r3" clip-path="url(#terminal-1714900664-line-26)" textLength="61">/help</text><text x="146.4" y="654.4" class="terminal-1714900664-r5" clip-path="url(#terminal-1714900664-line-26)" textLength="353.8">Show commands and keybindings</text><text x="1244.4" y="654.4" class="terminal-1714900664-r15" clip-path="url(#terminal-1714900664-line-26)" textLength="12.2">│</text><text x="12.2" y="678.8" class="terminal-1714900664-r15" clip-path="url(#terminal-1714900664-line-27)" textLength="12.2">│</text><text x="61" y="678.8" class="terminal-1714900664-r3" clip-path="url(#terminal-1714900664-line-27)" textLength="73.2">/tools</text><text x="158.6" y="678.8" class="terminal-1714900664-r5" clip-path="url(#terminal-1714900664-line-27)" textLength="439.2">Show built-in, MCP and sandbox tools</text><text x="1244.4" y="678.8" class="terminal-1714900664-r15" clip-path="url(#terminal-1714900664-line-27)" textLength="12.2">│</text><text x="12.2" y="703.2" class="terminal-1714900664-r15" clip-path="url(#terminal-1714900664-line-28)" textLength="12.2">│</text><text x="61" y="703.2" class="terminal-1714900664-r3" clip-path="url(#terminal-1714900664-line-28)" textLength="48.8">/tdd</text><text x="134.2" y="703.2" class="terminal-1714900664-r5" clip-path="url(#terminal-1714900664-line-28)" textLength="280.6">Test-driven development</text><text x="1244.4" y="703.2" class="terminal-1714900664-r15" clip-path="url(#terminal-1714900664-line-28)" textLength="12.2">│</text><text x="12.2" y="727.6" class="terminal-1714900664-r15" clip-path="url(#terminal-1714900664-line-29)" textLength="12.2">╰</text><text x="24.4" y="727.6" class="terminal-1714900664-r15" clip-path="url(#terminal-1714900664-line-29)" textLength="1220">────────────────────────────────────────────────────────────────────────────────────────────────────</text><text x="1244.4" y="727.6" class="terminal-1714900664-r15" clip-path="url(#terminal-1714900664-line-29)" textLength="12.2">╯</text><text x="12.2" y="752" class="terminal-1714900664-r14" clip-path="url(#terminal-1714900664-line-30)" textLength="12.2">╭</text><text x="24.4" y="752" class="terminal-1714900664-r14" clip-path="url(#terminal-1714900664-line-30)" textLength="1220">────────────────────────────────────────────────────────────────────────────────────────────────────</text><text x="1244.4" y="752" class="terminal-1714900664-r14" clip-path="url(#terminal-1714900664-line-30)" textLength="12.2">╮</text><text x="12.2" y="776.4" class="terminal-1714900664-r14" clip-path="url(#terminal-1714900664-line-31)" textLength="12.2">│</text><text x="48.8" y="776.4" class="terminal-1714900664-r16" clip-path="url(#terminal-1714900664-line-31)" textLength="24.4">/m</text><text x="1244.4" y="776.4" class="terminal-1714900664-r14" clip-path="url(#terminal-1714900664-line-31)" textLength="12.2">│</text><text x="12.2" y="800.8" class="terminal-1714900664-r14" clip-path="url(#terminal-1714900664-line-32)" textLength="12.2">╰</text><text x="24.4" y="800.8" class="terminal-1714900664-r14" clip-path="url(#terminal-1714900664-line-32)" textLength="1220">────────────────────────────────────────────────────────────────────────────────────────────────────</text><text x="1244.4" y="800.8" class="terminal-1714900664-r14" clip-path="url(#terminal-1714900664-line-32)" textLength="12.2">╯</text></g></g></svg>