<svg xmlns="http://www.w3.org/2000/svg" class="rich-terminal" viewBox="0 0 1287 1026"><style>@font-face{font-family:&quot;Fira Code&quot;;src:local(&quot;FiraCode-Regular&quot;),url(https://cdnjs.cloudflare.com/ajax/libs/firacode/6.2.0/woff2/FiraCode-Regular.woff2) format(&quot;woff2&quot;),url(https://cdnjs.cloudflare.com/ajax/libs/firacode/6.2.0/woff/FiraCode-Regular.woff) format(&quot;woff&quot;);font-style:normal;font-weight:400}@font-face{font-family:&quot;Fira Code&quot;;src:local(&quot;FiraCode-Bold&quot;),url(https://cdnjs.cloudflare.com/ajax/libs/firacode/6.2.0/woff2/FiraCode-Bold.woff2) format(&quot;woff2&quot;),url(https://cdnjs.cloudflare.com/ajax/libs/firacode/6.2.0/woff/FiraCode-Bold.woff) format(&quot;woff&quot;);font-style:bold;font-weight:700}.terminal-1276861884-matrix{font-family:Fira Code,monospace;font-size:20px;line-height:24.4px;font-variant-east-asian:full-width}.terminal-1276861884-title{font-size:18px;font-weight:700;font-family:arial}.terminal-1276861884-r2{fill:#1a1b26;font-weight:700}.terminal-1276861884-r3{fill:#c0caf5}.terminal-1276861884-r4{fill:#7dcfff;font-weight:700}.terminal-1276861884-r5{fill:#565f89}.terminal-1276861884-r6{fill:#737aa2}.terminal-1276861884-r7{fill:#7aa2f7;font-weight:700}.terminal-1276861884-r8{fill:#c0caf5;font-weight:700}.terminal-1276861884-r10,.terminal-1276861884-r9{text-decoration:underline}.terminal-1276861884-r9{fill:#f4005f}.terminal-1276861884-r10{fill:#9d65ff}.terminal-1276861884-r11{fill:#58d1eb;font-weight:700}.terminal-1276861884-r12{fill:#f4005f}.terminal-1276861884-r13{fill:#878eae}.terminal-1276861884-r14{fill:#58d1eb}.terminal-1276861884-r15{fill:#9ece6a;font-weight:700}.terminal-1276861884-r16{fill:#737aa2;font-style:italic}.terminal-1276861884-r17{fill:#7dcfff}.terminal-1276861884-r18{fill:#121212}.terminal-1276861884-r19{fill:#797c86}</style><defs><clipPath id="terminal-1276861884-clip-terminal"><rect width="1267.8" height="975" x="0" y="0"/></clipPath><clipPath id="terminal-1276861884-line-0"><rect width="1268.8" height="24.65" x="0" y="1.5"/></clipPath><clipPath id="terminal-1276861884-line-1"><rect width="1268.8" height="24.65" x="0" y="25.9"/></clipPath><clipPath id="terminal-1276861884-line-2"><rect width="1268.8" height="24.65" x="0" y="50.3"/></clipPath><clipPath id="terminal-1276861884-line-3"><rect width="1268.8" height="24.65" x="0" y="74.7"/></clipPath><clipPath id="terminal-1276861884-line-4"><rect width="1268.8" height="24.65" x="0" y="99.1"/></clipPath><clipPath id="terminal-1276861884-line-5"><rect width="1268.8" height="24.65" x="0" y="123.5"/></clipPath><clipPath id="terminal-1276861884-line-6"><rect width="1268.8" height="24.65" x="0" y="147.9"/></clipPath><clipPath id="terminal-1276861884-line-7"><rect width="1268.8" height="24.65" x="0" y="172.3"/></clipPath><clipPath id="terminal-1276861884-line-8"><rect width="1268.8" height="24.65" x="0" y="196.7"/></clipPath><clipPath id="terminal-1276861884-line-9"><rect width="1268.8" height="24.65" x="0" y="221.1"/></clipPath><clipPath id="terminal-1276861884-line-10"><rect width="1268.8" height="24.65" x="0" y="245.5"/></clipPath><clipPath id="terminal-1276861884-line-11"><rect width="1268.8" height="24.65" x="0" y="269.9"/></clipPath><clipPath id="terminal-1276861884-line-12"><rect width="1268.8" height="24.65" x="0" y="294.3"/></clipPath><clipPath id="terminal-1276861884-line-13"><rect width="1268.8" height="24.65" x="0" y="318.7"/></clipPath><clipPath id="terminal-1276861884-line-14"><rect width="1268.8" height="24.65" x="0" y="343.1"/></clipPath><clipPath id="terminal-1276861884-line-15"><rect width="1268.8" height="24.65" x="0" y="367.5"/></clipPath><clipPath id="terminal-1276861884-line-16"><rect width="1268.8" height="24.65" x="0" y="391.9"/></clipPath><clipPath id="terminal-1276861884-line-17"><rect width="1268.8" height="24.65" x="0" y="416.3"/></clipPath><clipPath id="terminal-1276861884-line-18"><rect width="1268.8" height="24.65" x="0" y="440.7"/></clipPath><clipPath id="terminal-1276861884-line-19"><rect width="1268.8" height="24.65" x="0" y="465.1"/></clipPath><clipPath id="terminal-1276861884-line-20"><rect width="1268.8" height="24.65" x="0" y="489.5"/></clipPath><clipPath id="terminal-1276861884-line-21"><rect width="1268.8" height="24.65" x="0" y="513.9"/></clipPath><clipPath id="terminal-1276861884-line-22"><rect width="1268.8" height="24.65" x="0" y="538.3"/></clipPath><clipPath id="terminal-1276861884-line-23"><rect width="1268.8" height="24.65" x="0" y="562.7"/></clipPath><clipPath id="terminal-1276861884-line-24"><rect width="1268.8" height="24.65" x="0" y="587.1"/></clipPath><clipPath id="terminal-1276861884-line-25"><rect width="1268.8" height="24.65" x="0" y="611.5"/></clipPath><clipPath id="terminal-1276861884-line-26"><rect width="1268.8" height="24.65" x="0" y="635.9"/></clipPath><clipPath id="terminal-1276861884-line-27"><rect width="1268.8" height="24.65" x="0" y="660.3"/></clipPath><clipPath id="terminal-1276861884-line-28"><rect width="1268.8" height="24.65" x="0" y="684.7"/></clipPath><clipPath id="terminal-1276861884-line-29"><rect width="1268.8" height="24.65" x="0" y="709.1"/></clipPath><clipPath id="terminal-1276861884-line-30"><rect width="1268.8" height="24.65" x="0" y="733.5"/></clipPath><clipPath id="terminal-1276861884-line-31"><rect width="1268.8" height="24.65" x="0" y="757.9"/></clipPath><clipPath id="terminal-1276861884-line-32"><rect width="1268.8" height="24.65" x="0" y="782.3"/></clipPath><clipPath id="terminal-1276861884-line-33"><rect width="1268.8" height="24.65" x="0" y="806.7"/></clipPath><clipPath id="terminal-1276861884-line-34"><rect width="1268.8" height="24.65" x="0" y="831.1"/></clipPath><clipPath id="terminal-1276861884-line-35"><rect width="1268.8" height="24.65" x="0" y="855.5"/></clipPath><clipPath id="terminal-1276861884-line-36"><rect width="1268.8" height="24.65" x="0" y="879.9"/></clipPath><clipPath id="terminal-1276861884-line-37"><rect width="1268.8" height="24.65" x="0" y="904.3"/></clipPath><clipPath id="terminal-1276861884-line-38"><rect width="1268.8" height="24.65" x="0" y="928.7"/></clipPath></defs><rect width="1285" height="1024" x="1" y="1" fill="#292929" stroke="rgba(255,255,255,0.35)" stroke-width="1" rx="8"/><text x="642" y="27" fill="#c5c8c6" class="terminal-1276861884-title" text-anchor="middle">DeerFlow TUI — markdown</text><g transform="translate(26,22)"><circle cx="0" cy="0" r="7" fill="#ff5f57"/><circle cx="22" cy="0" r="7" fill="#febc2e"/><circle cx="44" cy="0" r="7" fill="#28c840"/></g><g clip-path="url(#terminal-1276861884-clip-terminal)" transform="translate(9, 41)"><rect width="12.2" height="24.65" x="0" y="1.5" fill="#1f2335" shape-rendering="crispEdges"/><rect width="122" height="24.65" x="12.2" y="1.5" fill="#7dcfff" shape-rendering="crispEdges"/><rect width="24.4" height="24.65" x="134.2" y="1.5" fill="#1f2335" shape-rendering="crispEdges"/><rect width="109.8" height="24.65" x="158.6" y="1.5" fill="#1f2335" shape-rendering="crispEdges"/><rect width="61" height="24.65" x="268.4" y="1.5" fill="#1f2335" shape-rendering="crispEdges"/><rect width="183" height="24.65" x="329.4" y="1.5" fill="#1f2335" shape-rendering="crispEdges"/><rect width="61" height="24.65" x="512.4" y="1.5" fill="#1f2335" shape-rendering="crispEdges"/><rect width="488" height="24.65" x="573.4" y="1.5" fill="#1f2335" shape-rendering="crispEdges"/><rect width="61" height="24.65" x="1061.4" y="1.5" fill="#1f2335" shape-rendering="crispEdges"/><rect width="109.8" height="24.65" x="1122.4" y="1.5" fill="#1f2335" shape-rendering="crispEdges"/><rect width="24.4" height="24.65" x="1232.2" y="1.5" fill="#1f2335" shape-rendering="crispEdges"/><rect width="12.2" height="24.65" x="1256.6" y="1.5" fill="#1f2335" shape-rendering="crispEdges"/><rect width="1244.4" height="24.65" x="0" y="25.9" fill="#1a1b26" shape-rendering="crispEdges"/><rect width="24.4" height="24.65" x="1244.4" y="25.9" fill="#1a1b26" shape-rendering="crispEdges"/><rect width="24.4" height="24.65" x="0" y="50.3" fill="#1a1b26" shape-rendering="crispEdges"/><rect width="24.4" height="24.65" x="24.4" y="50.3" fill="#1a1b26" shape-rendering="crispEdges"/><rect width="500.2" height="24.65" x="48.8" y="50.3" fill="#1a1b26" shape-rendering="crispEdges"/><rect width="671" height="24.65" x="549" y="50.3" fill="#1a1b26" shape-rendering="crispEdges"/><rect width="24.4" height="24.65" x="1220" y="50.3" fill="#1a1b26" shape-rendering="crispEdges"/><rect width="24.4" height="24.65" x="1244.4" y="50.3" fill="#1a1b26" shape-rendering="crispEdges"/><rect width="24.4" height="24.65" x="0" y="74.7" fill="#1a1b26" shape-rendering="crispEdges"/><rect width="0" height="24.65" x="24.4" y="74.7" fill="#1a1b26" shape-rendering="crispEdges"/><rect width="1195.6" height="24.65" x="24.4" y="74.7" fill="#1a1b26" shape-rendering="crispEdges"/><rect width="24.4" height="24.65" x="1220" y="74.7" fill="#1a1b26" shape-rendering="crispEdges"/><rect width="24.4" height="24.65" x="1244.4" y="74.7" fill="#1a1b26" shape-rendering="crispEdges"/><rect width="24.4" height="24.65" x="0" y="99.1" fill="#1a1b26" shape-rendering="crispEdges"/><rect width="12.2" height="24.65" x="24.4" y="99.1" fill="#1a1b26" shape-rendering="crispEdges"/><rect width="12.2" height="24.65" x="36.6" y="99.1" fill="#1a1b26" shape-rendering="crispEdges"/><rect width="85.4" height="24.65" x="48.8" y="99.1" fill="#1a1b26" shape-rendering="crispEdges"/><rect width="36.6" height="24.65" x="134.2" y="99.1" fill="#1a1b26" shape-rendering="crispEdges"/><rect width="390.4" height="24.65" x="170.8" y="99.1" fill="#1a1b26" shape-rendering="crispEdges"/><rect width="97.6" height="24.65" x="561.2" y="99.1" fill="#1a1b26" shape-rendering="crispEdges"/><rect width="561.2" height="24.65" x="658.8" y="99.1" fill="#1a1b26" shape-rendering="crispEdges"/><rect width="24.4" height="24.65" x="1220" y="99.1" fill="#1a1b26" shape-rendering="crispEdges"/><rect width="24.4" height="24.65" x="1244.4" y="99.1" fill="#1a1b26" shape-rendering="crispEdges"/><rect width="24.4" height="24.65" x="0" y="123.5" fill="#1a1b26" shape-rendering="crispEdges"/><rect width="24.4" height="24.65" x="24.4" y="123.5" fill="#1a1b26" shape-rendering="crispEdges"/><rect width="1171.2" height="24.65" x="48.8" y="123.5" fill="#1a1b26" shape-rendering="crispEdges"/><rect width="24.4" height="24.65" x="1220" y="123.5" fill="#1a1b26" shape-rendering="crispEdges"/><rect width="24.4" height="24.65" x="1244.4" y="123.5" fill="#1a1b26" shape-rendering="crispEdges"/><rect width="24.4" height="24.65" x="0" y="147.9" fill="#1a1b26" shape-rendering="crispEdges"/><rect width="24.4" height="24.65" x="24.4" y="147.9" fill="#1a1b26" shape-rendering="crispEdges"/><rect width="134.2" height="24.65" x="48.8" y="147.9" fill="#1a1b26" shape-rendering="crispEdges"/><rect width="1037" height="24.65" x="183" y="147.9" fill="#1a1b26" shape-rendering="crispEdges"/><rect width="24.4" height="24.65" x="1220" y="147.9" fill="#1a1b26" shape-rendering="crispEdges"/><rect width="24.4" height="24.65" x="1244.4" y="147.9" fill="#1a1b26" shape-rendering="crispEdges"/><rect width="24.4" height="24.65" x="0" y="172.3" fill="#1a1b26" shape-rendering="crispEdges"/><rect width="24.4" height="24.65" x="24.4" y="172.3" fill="#1a1b26" shape-rendering="crispEdges"/><rect width="1171.2" height="24.65" x="48.8" y="172.3" fill="#1a1b26" shape-rendering="crispEdges"/><rect width="24.4" height="24.65" x="1220" y="172.3" fill="#1a1b26" shape-rendering="crispEdges"/><rect width="24.4" height="24.65" x="1244.4" y="172.3" fill="#1a1b26" shape-rendering="crispEdges"/><rect width="24.4" height="24.65" x="0" y="196.7" fill="#1a1b26" shape-rendering="crispEdges"/><rect width="24.4" height="24.65" x="24.4" y="196.7" fill="#1a1b26" shape-rendering="crispEdges"/><rect width="512.4" height="24.65" x="48.8" y="196.7" fill="#1a1b26" shape-rendering="crispEdges"/><rect width="48.8" height="24.65" x="561.2" y="196.7" fill="#1a1b26" shape-rendering="crispEdges"/><rect width="610" height="24.65" x="610" y="196.7" fill="#1a1b26" shape-rendering="crispEdges"/><rect width="24.4" height="24.65" x="1220" y="196.7" fill="#1a1b26" shape-rendering="crispEdges"/><rect width="24.4" height="24.65" x="1244.4" y="196.7" fill="#1a1b26" shape-rendering="crispEdges"/><rect width="24.4" height="24.65" x="0" y="221.1" fill="#1a1b26" shape-rendering="crispEdges"/><rect width="24.4" height="24.65" x="24.4" y="221.1" fill="#1a1b26" shape-rendering="crispEdges"/><rect width="1171.2" height="24.65" x="48.8" y="221.1" fill="#1a1b26" shape-rendering="crispEdges"/><rect width="24.4" height="24.65" x="1220" y="221.1" fill="#1a1b26" shape-rendering="crispEdges"/><rect width="24.4" height="24.65" x="1244.4" y="221.1" fill="#1a1b26" shape-rendering="crispEdges"/><rect width="24.4" height="24.65" x="0" y="245.5" fill="#1a1b26" shape-rendering="crispEdges"/><rect width="24.4" height="24.65" x="24.4" y="245.5" fill="#1a1b26" shape-rendering="crispEdges"/><rect width="36.6" height="24.65" x="48.8" y="245.5" fill="#1a1b26" shape-rendering="crispEdges"/><rect width="48.8" height="24.65" x="85.4" y="245.5" fill="#1a1b26" shape-rendering="crispEdges"/><rect width="1085.8" height="24.65" x="134.2" y="245.5" fill="#1a1b26" shape-rendering="crispEdges"/><rect width="24.4" height="24.65" x="1220" y="245.5" fill="#1a1b26" shape-rendering="crispEdges"/><rect width="24.4" height="24.65" x="1244.4" y="245.5" fill="#1a1b26" shape-rendering="crispEdges"/><rect width="24.4" height="24.65" x="0" y="269.9" fill="#1a1b26" shape-rendering="crispEdges"/><rect width="24.4" height="24.65" x="24.4" y="269.9" fill="#1a1b26" shape-rendering="crispEdges"/><rect width="36.6" height="24.65" x="48.8" y="269.9" fill="#1a1b26" shape-rendering="crispEdges"/><rect width="48.8" height="24.65" x="85.4" y="269.9" fill="#1a1b26" shape-rendering="crispEdges"/><rect width="1085.8" height="24.65" x="134.2" y="269.9" fill="#1a1b26" shape-rendering="crispEdges"/><rect width="24.4" height="24.65" x="1220" y="269.9" fill="#1a1b26" shape-rendering="crispEdges"/><rect width="24.4" height="24.65" x="1244.4" y="269.9" fill="#1a1b26" shape-rendering="crispEdges"/><rect width="24.4" height="24.65" x="0" y="294.3" fill="#1a1b26" shape-rendering="crispEdges"/><rect width="24.4" height="24.65" x="24.4" y="294.3" fill="#1a1b26" shape-rendering="crispEdges"/><rect width="36.6" height="24.65" x="48.8" y="294.3" fill="#1a1b26" shape-rendering="crispEdges"/><rect width="48.8" height="24.65" x="85.4" y="294.3" fill="#1a1b26" shape-rendering="crispEdges"/><rect width="1085.8" height="24.65" x="134.2" y="294.3" fill="#1a1b26" shape-rendering="crispEdges"/><rect width="24.4" height="24.65" x="1220" y="294.3" fill="#1a1b26" shape-rendering="crispEdges"/><rect width="24.4" height="24.65" x="1244.4" y="294.3" fill="#1a1b26" shape-rendering="crispEdges"/><rect width="24.4" height="24.65" x="0" y="318.7" fill="#1a1b26" shape-rendering="crispEdges"/><rect width="24.4" height="24.65" x="24.4" y="318.7" fill="#1a1b26" shape-rendering="crispEdges"/><rect width="1171.2" height="24.65" x="48.8" y="318.7" fill="#1a1b26" shape-rendering="crispEdges"/><rect width="24.4" height="24.65" x="1220" y="318.7" fill="#1a1b26" shape-rendering="crispEdges"/><rect width="24.4" height="24.65" x="1244.4" y="318.7" fill="#1a1b26" shape-rendering="crispEdges"/><rect width="24.4" height="24.65" x="0" y="343.1" fill="#1a1b26" shape-rendering="crispEdges"/><rect width="24.4" height="24.65" x="24.4" y="343.1" fill="#1a1b26" shape-rendering="crispEdges"/><rect width="158.6" height="24.65" x="48.8" y="343.1" fill="#1a1b26" shape-rendering="crispEdges"/><rect width="1012.6" height="24.65" x="207.4" y="343.1" fill="#1a1b26" shape-rendering="crispEdges"/><rect width="24.4" height="24.65" x="1220" y="343.1" fill="#1a1b26" shape-rendering="crispEdges"/><rect width="24.4" height="24.65" x="1244.4" y="343.1" fill="#1a1b26" shape-rendering="crispEdges"/><rect width="24.4" height="24.65" x="0" y="367.5" fill="#1a1b26" shape-rendering="crispEdges"/><rect width="24.4" height="24.65" x="24.4" y="367.5" fill="#1a1b26" shape-rendering="crispEdges"/><rect width="1171.2" height="24.65" x="48.8" y="367.5" fill="#1a1b26" shape-rendering="crispEdges"/><rect width="24.4" height="24.65" x="1220" y="367.5" fill="#1a1b26" shape-rendering="crispEdges"/><rect width="24.4" height="24.65" x="1244.4" y="367.5" fill="#1a1b26" shape-rendering="crispEdges"/><rect width="24.4" height="24.65" x="0" y="391.9" fill="#1a1b26" shape-rendering="crispEdges"/><rect width="24.4" height="24.65" x="24.4" y="391.9" fill="#1a1b26" shape-rendering="crispEdges"/><rect width="671" height="24.65" x="48.8" y="391.9" fill="#1a1b26" shape-rendering="crispEdges"/><rect width="146.4" height="24.65" x="719.8" y="391.9" fill="#1a1a1a" shape-rendering="crispEdges"/><rect width="353.8" height="24.65" x="866.2" y="391.9" fill="#1a1b26" shape-rendering="crispEdges"/><rect width="24.4" height="24.65" x="1220" y="391.9" fill="#1a1b26" shape-rendering="crispEdges"/><rect width="24.4" height="24.65" x="1244.4" y="391.9" fill="#1a1b26" shape-rendering="crispEdges"/><rect width="24.4" height="24.65" x="0" y="416.3" fill="#1a1b26" shape-rendering="crispEdges"/><rect width="24.4" height="24.65" x="24.4" y="416.3" fill="#1a1b26" shape-rendering="crispEdges"/><rect width="1171.2" height="24.65" x="48.8" y="416.3" fill="#1a1b26" shape-rendering="crispEdges"/><rect width="24.4" height="24.65" x="1220" y="416.3" fill="#1a1b26" shape-rendering="crispEdges"/><rect width="24.4" height="24.65" x="1244.4" y="416.3" fill="#1a1b26" shape-rendering="crispEdges"/><rect width="24.4" height="24.65" x="0" y="440.7" fill="#1a1b26" shape-rendering="crispEdges"/><rect width="24.4" height="24.65" x="24.4" y="440.7" fill="#1a1b26" shape-rendering="crispEdges"/><rect width="24.4" height="24.65" x="48.8" y="440.7" fill="#1a1b26" shape-rendering="crispEdges"/><rect width="427" height="24.65" x="73.2" y="440.7" fill="#1a1b26" shape-rendering="crispEdges"/><rect width="695.4" height="24.65" x="500.2" y="440.7" fill="#1a1b26" shape-rendering="crispEdges"/><rect width="24.4" height="24.65" x="1195.6" y="440.7" fill="#1a1b26" shape-rendering="crispEdges"/><rect width="24.4" height="24.65" x="1220" y="440.7" fill="#1a1b26" shape-rendering="crispEdges"/><rect width="24.4" height="24.65" x="1244.4" y="440.7" fill="#1a1b26" shape-rendering="crispEdges"/><rect width="24.4" height="24.65" x="0" y="465.1" fill="#1a1b26" shape-rendering="crispEdges"/><rect width="24.4" height="24.65" x="24.4" y="465.1" fill="#1a1b26" shape-rendering="crispEdges"/><rect width="1171.2" height="24.65" x="48.8" y="465.1" fill="#1a1b26" shape-rendering="crispEdges"/><rect width="24.4" height="24.65" x="1220" y="465.1" fill="#1a1b26" shape-rendering="crispEdges"/><rect width="24.4" height="24.65" x="1244.4" y="465.1" fill="#1a1b26" shape-rendering="crispEdges"/><rect width="24.4" height="24.65" x="0" y="489.5" fill="#1a1b26" shape-rendering="crispEdges"/><rect width="24.4" height="24.65" x="24.4" y="489.5" fill="#1a1b26" shape-rendering="crispEdges"/><rect width="1171.2" height="24.65" x="48.8" y="489.5" fill="#1a1b26" shape-rendering="crispEdges"/><rect width="24.4" height="24.65" x="1220" y="489.5" fill="#1a1b26" shape-rendering="crispEdges"/><rect width="24.4" height="24.65" x="1244.4" y="489.5" fill="#1a1b26" shape-rendering="crispEdges"/><rect width="24.4" height="24.65" x="0" y="513.9" fill="#1a1b26" shape-rendering="crispEdges"/><rect width="24.4" height="24.65" x="24.4" y="513.9" fill="#1a1b26" shape-rendering="crispEdges"/><rect width="1171.2" height="24.65" x="48.8" y="513.9" fill="#1a1b26" shape-rendering="crispEdges"/><rect width="24.4" height="24.65" x="1220" y="513.9" fill="#1a1b26" shape-rendering="crispEdges"/><rect width="24.4" height="24.65" x="1244.4" y="513.9" fill="#1a1b26" shape-rendering="crispEdges"/><rect width="24.4" height="24.65" x="0" y="538.3" fill="#1a1b26" shape-rendering="crispEdges"/><rect width="24.4" height="24.65" x="24.4" y="538.3" fill="#1a1b26" shape-rendering="crispEdges"/><rect width="85.4" height="24.65" x="48.8" y="538.3" fill="#1a1b26" shape-rendering="crispEdges"/><rect width="1085.8" height="24.65" x="134.2" y="538.3" fill="#1a1b26" shape-rendering="crispEdges"/><rect width="24.4" height="24.65" x="1220" y="538.3" fill="#1a1b26" shape-rendering="crispEdges"/><rect width="24.4" height="24.65" x="1244.4" y="538.3" fill="#1a1b26" shape-rendering="crispEdges"/><rect width="24.4" height="24.65" x="0" y="562.7" fill="#1a1b26" shape-rendering="crispEdges"/><rect width="24.4" height="24.65" x="24.4" y="562.7" fill="#1a1b26" shape-rendering="crispEdges"/><rect width="1171.2" height="24.65" x="48.8" y="562.7" fill="#1a1b26" shape-rendering="crispEdges"/><rect width="24.4" height="24.65" x="1220" y="562.7" fill="#1a1b26" shape-rendering="crispEdges"/><rect width="24.4" height="24.65" x="1244.4" y="562.7" fill="#1a1b26" shape-rendering="crispEdges"/><rect width="24.4" height="24.65" x="0" y="587.1" fill="#1a1b26" shape-rendering="crispEdges"/><rect width="24.4" height="24.65" x="24.4" y="587.1" fill="#1a1b26" shape-rendering="crispEdges"/><rect width="36.6" height="24.65" x="48.8" y="587.1" fill="#1a1b26" shape-rendering="crispEdges"/><rect width="219.6" height="24.65" x="85.4" y="587.1" fill="#1a1b26" shape-rendering="crispEdges"/><rect width="915" height="24.65" x="305" y="587.1" fill="#1a1b26" shape-rendering="crispEdges"/><rect width="24.4" height="24.65" x="1220" y="587.1" fill="#1a1b26" shape-rendering="crispEdges"/><rect width="24.4" height="24.65" x="1244.4" y="587.1" fill="#1a1b26" shape-rendering="crispEdges"/><rect width="24.4" height="24.65" x="0" y="611.5" fill="#1a1b26" shape-rendering="crispEdges"/><rect width="24.4" height="24.65" x="24.4" y="611.5" fill="#1a1b26" shape-rendering="crispEdges"/><rect width="36.6" height="24.65" x="48.8" y="611.5" fill="#1a1b26" shape-rendering="crispEdges"/><rect width="219.6" height="24.65" x="85.4" y="611.5" fill="#1a1b26" shape-rendering="crispEdges"/><rect width="915" height="24.65" x="305" y="611.5" fill="#1a1b26" shape-rendering="crispEdges"/><rect width="24.4" height="24.65" x="1220" y="611.5" fill="#1a1b26" shape-rendering="crispEdges"/><rect width="24.4" height="24.65" x="1244.4" y="611.5" fill="#1a1b26" shape-rendering="crispEdges"/><rect width="24.4" height="24.65" x="0" y="635.9" fill="#1a1b26" shape-rendering="crispEdges"/><rect width="1195.6" height="24.65" x="24.4" y="635.9" fill="#1a1b26" shape-rendering="crispEdges"/><rect width="24.4" height="24.65" x="1220" y="635.9" fill="#1a1b26" shape-rendering="crispEdges"/><rect width="24.4" height="24.65" x="1244.4" y="635.9" fill="#1a1b26" shape-rendering="crispEdges"/><rect width="24.4" height="24.65" x="0" y="660.3" fill="#1a1b26" shape-rendering="crispEdges"/><rect width="1195.6" height="24.65" x="24.4" y="660.3" fill="#1a1b26" shape-rendering="crispEdges"/><rect width="24.4" height="24.65" x="1220" y="660.3" fill="#1a1b26" shape-rendering="crispEdges"/><rect width="24.4" height="24.65" x="1244.4" y="660.3" fill="#1a1b26" shape-rendering="crispEdges"/><rect width="24.4" height="24.65" x="0" y="684.7" fill="#1a1b26" shape-rendering="crispEdges"/><rect width="1195.6" height="24.65" x="24.4" y="684.7" fill="#1a1b26" shape-rendering="crispEdges"/><rect width="24.4" height="24.65" x="1220" y="684.7" fill="#1a1b26" shape-rendering="crispEdges"/><rect width="24.4" height="24.65" x="1244.4" y="684.7" fill="#1a1b26" shape-rendering="crispEdges"/><rect width="24.4" height="24.65" x="0" y="709.1" fill="#1a1b26" shape-rendering="crispEdges"/><rect width="1195.6" height="24.65" x="24.4" y="709.1" fill="#1a1b26" shape-rendering="crispEdges"/><rect width="24.4" height="24.65" x="1220" y="709.1" fill="#1a1b26" shape-rendering="crispEdges"/><rect width="24.4" height="24.65" x="1244.4" y="709.1" fill="#1a1b26" shape-rendering="crispEdges"/><rect width="24.4" height="24.65" x="0" y="733.5" fill="#1a1b26" shape-rendering="crispEdges"/><rect width="1195.6" height="24.65" x="24.4" y="733.5" fill="#1a1b26" shape-rendering="crispEdges"/><rect width="24.4" height="24.65" x="1220" y="733.5" fill="#1a1b26" shape-rendering="crispEdges"/><rect width="24.4" height="24.65" x="1244.4" y="733.5" fill="#1a1b26" shape-rendering="crispEdges"/><rect width="24.4" height="24.65" x="0" y="757.9" fill="#1a1b26" shape-rendering="crispEdges"/><rect width="1195.6" height="24.65" x="24.4" y="757.9" fill="#1a1b26" shape-rendering="crispEdges"/><rect width="24.4" height="24.65" x="1220" y="757.9" fill="#1a1b26" shape-rendering="crispEdges"/><rect width="24.4" height="24.65" x="1244.4" y="757.9" fill="#1a1b26" shape-rendering="crispEdges"/><rect width="24.4" height="24.65" x="0" y="782.3" fill="#1a1b26" shape-rendering="crispEdges"/><rect width="1195.6" height="24.65" x="24.4" y="782.3" fill="#1a1b26" shape-rendering="crispEdges"/><rect width="24.4" height="24.65" x="1220" y="782.3" fill="#1a1b26" shape-rendering="crispEdges"/><rect width="24.4" height="24.65" x="1244.4" y="782.3" fill="#1a1b26" shape-rendering="crispEdges"/><rect width="24.4" height="24.65" x="0" y="806.7" fill="#1a1b26" shape-rendering="crispEdges"/><rect width="1195.6" height="24.65" x="24.4" y="806.7" fill="#1a1b26" shape-rendering="crispEdges"/><rect width="24.4" height="24.65" x="1220" y="806.7" fill="#1a1b26" shape-rendering="crispEdges"/><rect width="24.4" height="24.65" x="1244.4" y="806.7" fill="#1a1b26" shape-rendering="crispEdges"/><rect width="1244.4" height="24.65" x="0" y="831.1" fill="#1a1b26" shape-rendering="crispEdges"/><rect width="24.4" height="24.65" x="1244.4" y="831.1" fill="#1a1b26" shape-rendering="crispEdges"/><rect width="12.2" height="24.65" x="0" y="855.5" fill="#1f2335" shape-rendering="crispEdges"/><rect width="85.4" height="24.65" x="12.2" y="855.5" fill="#1f2335" shape-rendering="crispEdges"/><rect width="24.4" height="24.65" x="97.6" y="855.5" fill="#1f2335" shape-rendering="crispEdges"/><rect width="170.8" height="24.65" x="122" y="855.5" fill="#1f2335" shape-rendering="crispEdges"/><rect width="36.6" height="24.65" x="292.8" y="855.5" fill="#1f2335" shape-rendering="crispEdges"/><rect width="109.8" height="24.65" x="329.4" y="855.5" fill="#1f2335" shape-rendering="crispEdges"/><rect width="36.6" height="24.65" x="439.2" y="855.5" fill="#1f2335" shape-rendering="crispEdges"/><rect width="183" height="24.65" x="475.8" y="855.5" fill="#1f2335" shape-rendering="crispEdges"/><rect width="36.6" height="24.65" x="658.8" y="855.5" fill="#1f2335" shape-rendering="crispEdges"/><rect width="97.6" height="24.65" x="695.4" y="855.5" fill="#1f2335" shape-rendering="crispEdges"/><rect width="463.6" height="24.65" x="793" y="855.5" fill="#1f2335" shape-rendering="crispEdges"/><rect width="12.2" height="24.65" x="1256.6" y="855.5" fill="#1f2335" shape-rendering="crispEdges"/><rect width="12.2" height="24.65" x="0" y="879.9" fill="#1a1b26" shape-rendering="crispEdges"/><rect width="12.2" height="24.65" x="12.2" y="879.9" fill="#282c3d" shape-rendering="crispEdges"/><rect width="1220" height="24.65" x="24.4" y="879.9" fill="#282c3d" shape-rendering="crispEdges"/><rect width="12.2" height="24.65" x="1244.4" y="879.9" fill="#282c3d" shape-rendering="crispEdges"/><rect width="12.2" height="24.65" x="1256.6" y="879.9" fill="#1a1b26" shape-rendering="crispEdges"/><rect width="12.2" height="24.65" x="0" y="904.3" fill="#1a1b26" shape-rendering="crispEdges"/><rect width="12.2" height="24.65" x="12.2" y="904.3" fill="#282c3d" shape-rendering="crispEdges"/><rect width="24.4" height="24.65" x="24.4" y="904.3" fill="#282c3d" shape-rendering="crispEdges"/><rect width="12.2" height="24.65" x="48.8" y="904.3" fill="#e0e0e0" shape-rendering="crispEdges"/><rect width="451.4" height="24.65" x="61" y="904.3" fill="#282c3d" shape-rendering="crispEdges"/><rect width="707.6" height="24.65" x="512.4" y="904.3" fill="#282c3d" shape-rendering="crispEdges"/><rect width="24.4" height="24.65" x="1220" y="904.3" fill="#282c3d" shape-rendering="crispEdges"/><rect width="12.2" height="24.65" x="1244.4" y="904.3" fill="#282c3d" shape-rendering="crispEdges"/><rect width="12.2" height="24.65" x="1256.6" y="904.3" fill="#1a1b26" shape-rendering="crispEdges"/><rect width="12.2" height="24.65" x="0" y="928.7" fill="#1a1b26" shape-rendering="crispEdges"/><rect width="12.2" height="24.65" x="12.2" y="928.7" fill="#282c3d" shape-rendering="crispEdges"/><rect width="1220" height="24.65" x="24.4" y="928.7" fill="#282c3d" shape-rendering="crispEdges"/><rect width="12.2" height="24.65" x="1244.4" y="928.7" fill="#282c3d" shape-rendering="crispEdges"/><rect width="12.2" height="24.65" x="1256.6" y="928.7" fill="#1a1b26" shape-rendering="crispEdges"/><rect width="1268.8" height="24.65" x="0" y="953.1" fill="#1a1b26" shape-rendering="crispEdges"/><g class="terminal-1276861884-matrix"><text x="12.2" y="20" class="terminal-1276861884-r2" clip-path="url(#terminal-1276861884-line-0)" textLength="122">DeerFlow</text><text x="158.6" y="20" class="terminal-1276861884-r4" clip-path="url(#terminal-1276861884-line-0)" textLength="109.8">kimi-k2.6</text><text x="268.4" y="20" class="terminal-1276861884-r5" clip-path="url(#terminal-1276861884-line-0)" textLength="61">·</text><text x="329.4" y="20" class="terminal-1276861884-r6" clip-path="url(#terminal-1276861884-line-0)" textLength="183">thread b0bc1580</text><text x="512.4" y="20" class="terminal-1276861884-r5" clip-path="url(#terminal-1276861884-line-0)" textLength="61">·</text><text x="573.4" y="20" class="terminal-1276861884-r5" clip-path="url(#terminal-1276861884-line-0)" textLength="488">/Users/taohe/workspace/deer-flow/backend</text><text x="1061.4" y="20" class="terminal-1276861884-r5" clip-path="url(#terminal-1276861884-line-0)" textLength="61">·</text><text x="1122.4" y="20" class="terminal-1276861884-r5" clip-path="url(#terminal-1276861884-line-0)" textLength="109.8">12 skills</text><text x="24.4" y="68.8" class="terminal-1276861884-r7" clip-path="url(#terminal-1276861884-line-2)" textLength="24.4">›</text><text x="48.8" y="68.8" class="terminal-1276861884-r7" clip-path="url(#terminal-1276861884-line-2)" textLength="256.2">世界杯小组赛第二轮总结一下，C罗表现怎么样</text><text x="24.4" y="117.6" class="terminal-1276861884-r8" clip-path="url(#terminal-1276861884-line-4)" textLength="12.2">●</text><text x="48.8" y="117.6" class="terminal-1276861884-r3" clip-path="url(#terminal-1276861884-line-4)" textLength="48.8">葡萄牙</text><text x="134.2" y="117.6" class="terminal-1276861884-r8" clip-path="url(#terminal-1276861884-line-4)" textLength="36.6">5-0</text><text x="170.8" y="117.6" class="terminal-1276861884-r3" clip-path="url(#terminal-1276861884-line-4)" textLength="207.4">横扫乌兹别克斯坦，强势反弹！C罗</text><text x="561.2" y="117.6" class="terminal-1276861884-r8" clip-path="url(#terminal-1276861884-line-4)" textLength="48.8">梅开二度</text><text x="658.8" y="117.6" class="terminal-1276861884-r3" clip-path="url(#terminal-1276861884-line-4)" textLength="549">。</text><text x="48.8" y="166.4" class="terminal-1276861884-r9" clip-path="url(#terminal-1276861884-line-6)" textLength="73.2">🌍 整体形势</text><text x="48.8" y="215.2" class="terminal-1276861884-r3" clip-path="url(#terminal-1276861884-line-8)" textLength="305">第二轮结束后，已有 6 支球队提前锁定 32 强</text><text x="561.2" y="215.2" class="terminal-1276861884-r10" clip-path="url(#terminal-1276861884-line-8)" textLength="24.4">来源</text><text x="610" y="215.2" class="terminal-1276861884-r3" clip-path="url(#terminal-1276861884-line-8)" textLength="610">:</text><text x="48.8" y="264" class="terminal-1276861884-r8" clip-path="url(#terminal-1276861884-line-10)" textLength="36.6">•</text><text x="85.4" y="264" class="terminal-1276861884-r8" clip-path="url(#terminal-1276861884-line-10)" textLength="24.4">欧洲</text><text x="134.2" y="264" class="terminal-1276861884-r3" clip-path="url(#terminal-1276861884-line-10)" textLength="878.4">：德国（E组，两战 9 进球）、法国、挪威</text><text x="48.8" y="288.4" class="terminal-1276861884-r8" clip-path="url(#terminal-1276861884-line-11)" textLength="36.6">•</text><text x="85.4" y="288.4" class="terminal-1276861884-r8" clip-path="url(#terminal-1276861884-line-11)" textLength="24.4">南美</text><text x="134.2" y="288.4" class="terminal-1276861884-r3" clip-path="url(#terminal-1276861884-line-11)" textLength="1037">：阿根廷</text><text x="48.8" y="312.8" class="terminal-1276861884-r8" clip-path="url(#terminal-1276861884-line-12)" textLength="36.6">•</text><text x="85.4" y="312.8" class="terminal-1276861884-r8" clip-path="url(#terminal-1276861884-line-12)" textLength="24.4">北美</text><text x="134.2" y="312.8" class="terminal-1276861884-r3" clip-path="url(#terminal-1276861884-line-12)" textLength="939.4">：美国、墨西哥 — 东道主强势</text><text x="48.8" y="361.6" class="terminal-1276861884-r9" clip-path="url(#terminal-1276861884-line-14)" textLength="85.4">📅 接下来看点</text><text x="48.8" y="410.4" class="terminal-1276861884-r3" clip-path="url(#terminal-1276861884-line-16)" textLength="402.6">小组赛第三轮（6月25–27日）是生死战。葡萄牙 vs 哥伦比亚</text><text x="719.8" y="410.4" class="terminal-1276861884-r11" clip-path="url(#terminal-1276861884-line-16)" textLength="73.2">打平即可出线</text><text x="866.2" y="410.4" class="terminal-1276861884-r3" clip-path="url(#terminal-1276861884-line-16)" textLength="341.6">。</text><text x="48.8" y="459.2" class="terminal-1276861884-r12" clip-path="url(#terminal-1276861884-line-18)" textLength="24.4">▌</text><text x="73.2" y="459.2" class="terminal-1276861884-r12" clip-path="url(#terminal-1276861884-line-18)" textLength="256.2">C罗 41 岁用一场大胜宣告&quot;王者归来&quot;。</text><text x="48.8" y="508" class="terminal-1276861884-r13" clip-path="url(#terminal-1276861884-line-20)" textLength="1171.2">------------------------------------------------------------------------------------------------</text><text x="48.8" y="556.8" class="terminal-1276861884-r8" clip-path="url(#terminal-1276861884-line-22)" textLength="85.4">Sources</text><text x="48.8" y="605.6" class="terminal-1276861884-r14" clip-path="url(#terminal-1276861884-line-24)" textLength="36.6">1</text><text x="85.4" y="605.6" class="terminal-1276861884-r10" clip-path="url(#terminal-1276861884-line-24)" textLength="134.2">联合早报 — C罗双响</text><text x="48.8" y="630" class="terminal-1276861884-r14" clip-path="url(#terminal-1276861884-line-25)" textLength="36.6">2</text><text x="85.4" y="630" class="terminal-1276861884-r10" clip-path="url(#terminal-1276861884-line-25)" textLength="158.6">FIFA 官网 — 积分榜</text><text x="12.2" y="874" class="terminal-1276861884-r15" clip-path="url(#terminal-1276861884-line-35)" textLength="85.4">● ready</text><text x="122" y="874" class="terminal-1276861884-r16" clip-path="url(#terminal-1276861884-line-35)" textLength="85.4">世界杯次轮总结</text><text x="329.4" y="874" class="terminal-1276861884-r17" clip-path="url(#terminal-1276861884-line-35)" textLength="109.8">kimi-k2.6</text><text x="475.8" y="874" class="terminal-1276861884-r6" clip-path="url(#terminal-1276861884-line-35)" textLength="183">thread b0bc1580</text><text x="695.4" y="874" class="terminal-1276861884-r5" clip-path="url(#terminal-1276861884-line-35)" textLength="97.6">4096 tok</text><text x="12.2" y="898.4" class="terminal-1276861884-r17" clip-path="url(#terminal-1276861884-line-36)" textLength="12.2">╭</text><text x="24.4" y="898.4" class="terminal-1276861884-r17" clip-path="url(#terminal-1276861884-line-36)" textLength="1220">────────────────────────────────────────────────────────────────────────────────────────────────────</text><text x="1244.4" y="898.4" class="terminal-1276861884-r17" clip-path="url(#terminal-1276861884-line-36)" textLength="12.2">╮</text><text x="12.2" y="922.8" class="terminal-1276861884-r17" clip-path="url(#terminal-1276861884-line-37)" textLength="12.2">│</text><text x="48.8" y="922.8" class="terminal-1276861884-r18" clip-path="url(#terminal-1276861884-line-37)" textLength="12.2">M</text><text x="61" y="922.8" class="terminal-1276861884-r19" clip-path="url(#terminal-1276861884-line-37)" textLength="451.4">essage DeerFlow… ( / for commands )</text><text x="1244.4" y="922.8" class="terminal-1276861884-r17" clip-path="url(#terminal-1276861884-line-37)" textLength="12.2">│</text><text x="12.2" y="947.2" class="terminal-1276861884-r17" clip-path="url(#terminal-1276861884-line-38)" textLength="12.2">╰</text><text x="24.4" y="947.2" class="terminal-1276861884-r17" clip-path="url(#terminal-1276861884-line-38)" textLength="1220">────────────────────────────────────────────────────────────────────────────────────────────────────</text><text x="1244.4" y="947.2" class="terminal-1276861884-r17" clip-path="url(#terminal-1276861884-line-38)" textLength="12.2">╯</text></g></g></svg>