<svg xmlns="http://www.w3.org/2000/svg" class="rich-terminal" viewBox="0 0 1287 830.8"><style>@font-face{font-family:&quot;Fira Code&quot;;src:local(&quot;FiraCode-Regular&quot;),url(https://cdnjs.cloudflare.com/ajax/libs/firacode/6.2.0/woff2/FiraCode-Regular.woff2) format(&quot;woff2&quot;),url(https://cdnjs.cloudflare.com/ajax/libs/firacode/6.2.0/woff/FiraCode-Regular.woff) format(&quot;woff&quot;);font-style:normal;font-weight:400}@font-face{font-family:&quot;Fira Code&quot;;src:local(&quot;FiraCode-Bold&quot;),url(https://cdnjs.cloudflare.com/ajax/libs/firacode/6.2.0/woff2/FiraCode-Bold.woff2) format(&quot;woff2&quot;),url(https://cdnjs.cloudflare.com/ajax/libs/firacode/6.2.0/woff/FiraCode-Bold.woff) format(&quot;woff&quot;);font-style:bold;font-weight:700}.terminal-3109079472-matrix{font-family:Fira Code,monospace;font-size:20px;line-height:24.4px;font-variant-east-asian:full-width}.terminal-3109079472-title{font-size:18px;font-weight:700;font-family:arial}.terminal-3109079472-r2{fill:#1a1b26;font-weight:700}.terminal-3109079472-r3{fill:#c0caf5}.terminal-3109079472-r4{fill:#7dcfff;font-weight:700}.terminal-3109079472-r5{fill:#565f89}.terminal-3109079472-r6{fill:#737aa2}.terminal-3109079472-r7{fill:#7aa2f7;font-weight:700}.terminal-3109079472-r8{fill:#c0caf5;font-weight:700}.terminal-3109079472-r9{fill:#bb9af7}.terminal-3109079472-r10{fill:#bb9af7;font-weight:700}.terminal-3109079472-r11{fill:#9ece6a}.terminal-3109079472-r12{fill:#9ece6a;font-weight:700}.terminal-3109079472-r13{fill:#7dcfff}.terminal-3109079472-r14{fill:#e0e0e0}</style><defs><clipPath id="terminal-3109079472-clip-terminal"><rect width="1267.8" height="779.8" x="0" y="0"/></clipPath><clipPath id="terminal-3109079472-line-0"><rect width="1268.8" height="24.65" x="0" y="1.5"/></clipPath><clipPath id="terminal-3109079472-line-1"><rect width="1268.8" height="24.65" x="0" y="25.9"/></clipPath><clipPath id="terminal-3109079472-line-2"><rect width="1268.8" height="24.65" x="0" y="50.3"/></clipPath><clipPath id="terminal-3109079472-line-3"><rect width="1268.8" height="24.65" x="0" y="74.7"/></clipPath><clipPath id="terminal-3109079472-line-4"><rect width="1268.8" height="24.65" x="0" y="99.1"/></clipPath><clipPath id="terminal-3109079472-line-5"><rect width="1268.8" height="24.65" x="0" y="123.5"/></clipPath><clipPath id="terminal-3109079472-line-6"><rect width="1268.8" height="24.65" x="0" y="147.9"/></clipPath><clipPath id="terminal-3109079472-line-7"><rect width="1268.8" height="24.65" x="0" y="172.3"/></clipPath><clipPath id="terminal-3109079472-line-8"><rect width="1268.8" height="24.65" x="0" y="196.7"/></clipPath><clipPath id="terminal-3109079472-line-9"><rect width="1268.8" height="24.65" x="0" y="221.1"/></clipPath><clipPath id="terminal-3109079472-line-10"><rect width="1268.8" height="24.65" x="0" y="245.5"/></clipPath><clipPath id="terminal-3109079472-line-11"><rect width="1268.8" height="24.65" x="0" y="269.9"/></clipPath><clipPath id="terminal-3109079472-line-12"><rect width="1268.8" height="24.65" x="0" y="294.3"/></clipPath><clipPath id="terminal-3109079472-line-13"><rect width="1268.8" height="24.65" x="0" y="318.7"/></clipPath><clipPath id="terminal-3109079472-line-14"><rect width="1268.8" height="24.65" x="0" y="343.1"/></clipPath><clipPath id="terminal-3109079472-line-15"><rect width="1268.8" height="24.65" x="0" y="367.5"/></clipPath><clipPath id="terminal-3109079472-line-16"><rect width="1268.8" height="24.65" x="0" y="391.9"/></clipPath><clipPath id="terminal-3109079472-line-17"><rect width="1268.8" height="24.65" x="0" y="416.3"/></clipPath><clipPath id="terminal-3109079472-line-18"><rect width="1268.8" height="24.65" x="0" y="440.7"/></clipPath><clipPath id="terminal-3109079472-line-19"><rect width="1268.8" height="24.65" x="0" y="465.1"/></clipPath><clipPath id="terminal-3109079472-line-20"><rect width="1268.8" height="24.65" x="0" y="489.5"/></clipPath><clipPath id="terminal-3109079472-line-21"><rect width="1268.8" height="24.65" x="0" y="513.9"/></clipPath><clipPath id="terminal-3109079472-line-22"><rect width="1268.8" height="24.65" x="0" y="538.3"/></clipPath><clipPath id="terminal-3109079472-line-23"><rect width="1268.8" height="24.65" x="0" y="562.7"/></clipPath><clipPath id="terminal-3109079472-line-24"><rect width="1268.8" height="24.65" x="0" y="587.1"/></clipPath><clipPath id="terminal-3109079472-line-25"><rect width="1268.8" height="24.65" x="0" y="611.5"/></clipPath><clipPath id="terminal-3109079472-line-26"><rect width="1268.8" height="24.65" x="0" y="635.9"/></clipPath><clipPath id="terminal-3109079472-line-27"><rect width="1268.8" height="24.65" x="0" y="660.3"/></clipPath><clipPath id="terminal-3109079472-line-28"><rect width="1268.8" height="24.65" x="0" y="684.7"/></clipPath><clipPath id="terminal-3109079472-line-29"><rect width="1268.8" height="24.65" x="0" y="709.1"/></clipPath><clipPath id="terminal-3109079472-line-30"><rect width="1268.8" height="24.65" x="0" y="733.5"/></clipPath></defs><rect width="1285" height="828.8" x="1" y="1" fill="#292929" stroke="rgba(255,255,255,0.35)" stroke-width="1" rx="8"/><text x="642" y="27" fill="#c5c8c6" class="terminal-3109079472-title" text-anchor="middle">DeerFlow TUI</text><g transform="translate(26,22)"><circle cx="0" cy="0" r="7" fill="#ff5f57"/><circle cx="22" cy="0" r="7" fill="#febc2e"/><circle cx="44" cy="0" r="7" fill="#28c840"/></g><g clip-path="url(#terminal-3109079472-clip-terminal)" transform="translate(9, 41)"><rect width="12.2" height="24.65" x="0" y="1.5" fill="#1f2335" shape-rendering="crispEdges"/><rect width="122" height="24.65" x="12.2" y="1.5" fill="#7dcfff" shape-rendering="crispEdges"/><rect width="24.4" height="24.65" x="134.2" y="1.5" fill="#1f2335" shape-rendering="crispEdges"/><rect width="183" height="24.65" x="158.6" y="1.5" fill="#1f2335" shape-rendering="crispEdges"/><rect width="61" height="24.65" x="341.6" y="1.5" fill="#1f2335" shape-rendering="crispEdges"/><rect width="183" height="24.65" x="402.6" y="1.5" fill="#1f2335" shape-rendering="crispEdges"/><rect width="61" height="24.65" x="585.6" y="1.5" fill="#1f2335" shape-rendering="crispEdges"/><rect width="488" height="24.65" x="646.6" y="1.5" fill="#1f2335" shape-rendering="crispEdges"/><rect width="61" height="24.65" x="1134.6" y="1.5" fill="#1f2335" shape-rendering="crispEdges"/><rect width="12.2" height="24.65" x="1195.6" y="1.5" fill="#1f2335" shape-rendering="crispEdges"/><rect width="48.8" height="24.65" x="1207.8" y="1.5" fill="#1f2335" shape-rendering="crispEdges"/><rect width="12.2" height="24.65" x="1256.6" y="1.5" fill="#1f2335" shape-rendering="crispEdges"/><rect width="1244.4" height="24.65" x="0" y="25.9" fill="#1a1b26" shape-rendering="crispEdges"/><rect width="24.4" height="24.65" x="1244.4" y="25.9" fill="#1a1b26" shape-rendering="crispEdges"/><rect width="24.4" height="24.65" x="0" y="50.3" fill="#1a1b26" shape-rendering="crispEdges"/><rect width="24.4" height="24.65" x="24.4" y="50.3" fill="#1a1b26" shape-rendering="crispEdges"/><rect width="671" height="24.65" x="48.8" y="50.3" fill="#1a1b26" shape-rendering="crispEdges"/><rect width="500.2" height="24.65" x="719.8" y="50.3" fill="#1a1b26" shape-rendering="crispEdges"/><rect width="24.4" height="24.65" x="1220" y="50.3" fill="#1a1b26" shape-rendering="crispEdges"/><rect width="24.4" height="24.65" x="1244.4" y="50.3" fill="#1a1b26" shape-rendering="crispEdges"/><rect width="24.4" height="24.65" x="0" y="74.7" fill="#1a1b26" shape-rendering="crispEdges"/><rect width="0" height="24.65" x="24.4" y="74.7" fill="#1a1b26" shape-rendering="crispEdges"/><rect width="1195.6" height="24.65" x="24.4" y="74.7" fill="#1a1b26" shape-rendering="crispEdges"/><rect width="24.4" height="24.65" x="1220" y="74.7" fill="#1a1b26" shape-rendering="crispEdges"/><rect width="24.4" height="24.65" x="1244.4" y="74.7" fill="#1a1b26" shape-rendering="crispEdges"/><rect width="24.4" height="24.65" x="0" y="99.1" fill="#1a1b26" shape-rendering="crispEdges"/><rect width="24.4" height="24.65" x="24.4" y="99.1" fill="#1a1b26" shape-rendering="crispEdges"/><rect width="561.2" height="24.65" x="48.8" y="99.1" fill="#1a1b26" shape-rendering="crispEdges"/><rect width="610" height="24.65" x="610" y="99.1" fill="#1a1b26" shape-rendering="crispEdges"/><rect width="24.4" height="24.65" x="1220" y="99.1" fill="#1a1b26" shape-rendering="crispEdges"/><rect width="24.4" height="24.65" x="1244.4" y="99.1" fill="#1a1b26" shape-rendering="crispEdges"/><rect width="24.4" height="24.65" x="0" y="123.5" fill="#1a1b26" shape-rendering="crispEdges"/><rect width="0" height="24.65" x="24.4" y="123.5" fill="#1a1b26" shape-rendering="crispEdges"/><rect width="1195.6" height="24.65" x="24.4" y="123.5" fill="#1a1b26" shape-rendering="crispEdges"/><rect width="24.4" height="24.65" x="1220" y="123.5" fill="#1a1b26" shape-rendering="crispEdges"/><rect width="24.4" height="24.65" x="1244.4" y="123.5" fill="#1a1b26" shape-rendering="crispEdges"/><rect width="24.4" height="24.65" x="0" y="147.9" fill="#1a1b26" shape-rendering="crispEdges"/><rect width="48.8" height="24.65" x="24.4" y="147.9" fill="#1a1b26" shape-rendering="crispEdges"/><rect width="48.8" height="24.65" x="73.2" y="147.9" fill="#1a1b26" shape-rendering="crispEdges"/><rect width="305" height="24.65" x="122" y="147.9" fill="#1a1b26" shape-rendering="crispEdges"/><rect width="48.8" height="24.65" x="427" y="147.9" fill="#1a1b26" shape-rendering="crispEdges"/><rect width="744.2" height="24.65" x="475.8" y="147.9" fill="#1a1b26" shape-rendering="crispEdges"/><rect width="24.4" height="24.65" x="1220" y="147.9" fill="#1a1b26" shape-rendering="crispEdges"/><rect width="24.4" height="24.65" x="1244.4" y="147.9" fill="#1a1b26" shape-rendering="crispEdges"/><rect width="24.4" height="24.65" x="0" y="172.3" fill="#1a1b26" shape-rendering="crispEdges"/><rect width="719.8" height="24.65" x="24.4" y="172.3" fill="#1a1b26" shape-rendering="crispEdges"/><rect width="475.8" height="24.65" x="744.2" y="172.3" fill="#1a1b26" shape-rendering="crispEdges"/><rect width="24.4" height="24.65" x="1220" y="172.3" fill="#1a1b26" shape-rendering="crispEdges"/><rect width="24.4" height="24.65" x="1244.4" y="172.3" fill="#1a1b26" shape-rendering="crispEdges"/><rect width="24.4" height="24.65" x="0" y="196.7" fill="#1a1b26" shape-rendering="crispEdges"/><rect width="0" height="24.65" x="24.4" y="196.7" fill="#1a1b26" shape-rendering="crispEdges"/><rect width="1195.6" height="24.65" x="24.4" y="196.7" fill="#1a1b26" shape-rendering="crispEdges"/><rect width="24.4" height="24.65" x="1220" y="196.7" fill="#1a1b26" shape-rendering="crispEdges"/><rect width="24.4" height="24.65" x="1244.4" y="196.7" fill="#1a1b26" shape-rendering="crispEdges"/><rect width="24.4" height="24.65" x="0" y="221.1" fill="#1a1b26" shape-rendering="crispEdges"/><rect width="48.8" height="24.65" x="24.4" y="221.1" fill="#1a1b26" shape-rendering="crispEdges"/><rect width="48.8" height="24.65" x="73.2" y="221.1" fill="#1a1b26" shape-rendering="crispEdges"/><rect width="451.4" height="24.65" x="122" y="221.1" fill="#1a1b26" shape-rendering="crispEdges"/><rect width="48.8" height="24.65" x="573.4" y="221.1" fill="#1a1b26" shape-rendering="crispEdges"/><rect width="597.8" height="24.65" x="622.2" y="221.1" fill="#1a1b26" shape-rendering="crispEdges"/><rect width="24.4" height="24.65" x="1220" y="221.1" fill="#1a1b26" shape-rendering="crispEdges"/><rect width="24.4" height="24.65" x="1244.4" y="221.1" fill="#1a1b26" shape-rendering="crispEdges"/><rect width="24.4" height="24.65" x="0" y="245.5" fill="#1a1b26" shape-rendering="crispEdges"/><rect width="256.2" height="24.65" x="24.4" y="245.5" fill="#1a1b26" shape-rendering="crispEdges"/><rect width="939.4" height="24.65" x="280.6" y="245.5" fill="#1a1b26" shape-rendering="crispEdges"/><rect width="24.4" height="24.65" x="1220" y="245.5" fill="#1a1b26" shape-rendering="crispEdges"/><rect width="24.4" height="24.65" x="1244.4" y="245.5" fill="#1a1b26" shape-rendering="crispEdges"/><rect width="24.4" height="24.65" x="0" y="269.9" fill="#1a1b26" shape-rendering="crispEdges"/><rect width="0" height="24.65" x="24.4" y="269.9" fill="#1a1b26" shape-rendering="crispEdges"/><rect width="1195.6" height="24.65" x="24.4" y="269.9" fill="#1a1b26" shape-rendering="crispEdges"/><rect width="24.4" height="24.65" x="1220" y="269.9" fill="#1a1b26" shape-rendering="crispEdges"/><rect width="24.4" height="24.65" x="1244.4" y="269.9" fill="#1a1b26" shape-rendering="crispEdges"/><rect width="24.4" height="24.65" x="0" y="294.3" fill="#1a1b26" shape-rendering="crispEdges"/><rect width="24.4" height="24.65" x="24.4" y="294.3" fill="#1a1b26" shape-rendering="crispEdges"/><rect width="1171.2" height="24.65" x="48.8" y="294.3" fill="#1a1b26" shape-rendering="crispEdges"/><rect width="24.4" height="24.65" x="1220" y="294.3" fill="#1a1b26" shape-rendering="crispEdges"/><rect width="24.4" height="24.65" x="1244.4" y="294.3" fill="#1a1b26" shape-rendering="crispEdges"/><rect width="24.4" height="24.65" x="0" y="318.7" fill="#1a1b26" shape-rendering="crispEdges"/><rect width="451.4" height="24.65" x="24.4" y="318.7" fill="#1a1b26" shape-rendering="crispEdges"/><rect width="744.2" height="24.65" x="475.8" y="318.7" fill="#1a1b26" shape-rendering="crispEdges"/><rect width="24.4" height="24.65" x="1220" y="318.7" fill="#1a1b26" shape-rendering="crispEdges"/><rect width="24.4" height="24.65" x="1244.4" y="318.7" fill="#1a1b26" shape-rendering="crispEdges"/><rect width="24.4" height="24.65" x="0" y="343.1" fill="#1a1b26" shape-rendering="crispEdges"/><rect width="1195.6" height="24.65" x="24.4" y="343.1" fill="#1a1b26" shape-rendering="crispEdges"/><rect width="24.4" height="24.65" x="1220" y="343.1" fill="#1a1b26" shape-rendering="crispEdges"/><rect width="24.4" height="24.65" x="1244.4" y="343.1" fill="#1a1b26" shape-rendering="crispEdges"/><rect width="24.4" height="24.65" x="0" y="367.5" fill="#1a1b26" shape-rendering="crispEdges"/><rect width="1195.6" height="24.65" x="24.4" y="367.5" fill="#1a1b26" shape-rendering="crispEdges"/><rect width="24.4" height="24.65" x="1220" y="367.5" fill="#1a1b26" shape-rendering="crispEdges"/><rect width="24.4" height="24.65" x="1244.4" y="367.5" fill="#1a1b26" shape-rendering="crispEdges"/><rect width="24.4" height="24.65" x="0" y="391.9" fill="#1a1b26" shape-rendering="crispEdges"/><rect width="1195.6" height="24.65" x="24.4" y="391.9" fill="#1a1b26" shape-rendering="crispEdges"/><rect width="24.4" height="24.65" x="1220" y="391.9" fill="#1a1b26" shape-rendering="crispEdges"/><rect width="24.4" height="24.65" x="1244.4" y="391.9" fill="#1a1b26" shape-rendering="crispEdges"/><rect width="24.4" height="24.65" x="0" y="416.3" fill="#1a1b26" shape-rendering="crispEdges"/><rect width="1195.6" height="24.65" x="24.4" y="416.3" fill="#1a1b26" shape-rendering="crispEdges"/><rect width="24.4" height="24.65" x="1220" y="416.3" fill="#1a1b26" shape-rendering="crispEdges"/><rect width="24.4" height="24.65" x="1244.4" y="416.3" fill="#1a1b26" shape-rendering="crispEdges"/><rect width="24.4" height="24.65" x="0" y="440.7" fill="#1a1b26" shape-rendering="crispEdges"/><rect width="1195.6" height="24.65" x="24.4" y="440.7" fill="#1a1b26" shape-rendering="crispEdges"/><rect width="24.4" height="24.65" x="1220" y="440.7" fill="#1a1b26" shape-rendering="crispEdges"/><rect width="24.4" height="24.65" x="1244.4" y="440.7" fill="#1a1b26" shape-rendering="crispEdges"/><rect width="24.4" height="24.65" x="0" y="465.1" fill="#1a1b26" shape-rendering="crispEdges"/><rect width="1195.6" height="24.65" x="24.4" y="465.1" fill="#1a1b26" shape-rendering="crispEdges"/><rect width="24.4" height="24.65" x="1220" y="465.1" fill="#1a1b26" shape-rendering="crispEdges"/><rect width="24.4" height="24.65" x="1244.4" y="465.1" fill="#1a1b26" shape-rendering="crispEdges"/><rect width="24.4" height="24.65" x="0" y="489.5" fill="#1a1b26" shape-rendering="crispEdges"/><rect width="1195.6" height="24.65" x="24.4" y="489.5" fill="#1a1b26" shape-rendering="crispEdges"/><rect width="24.4" height="24.65" x="1220" y="489.5" fill="#1a1b26" shape-rendering="crispEdges"/><rect width="24.4" height="24.65" x="1244.4" y="489.5" fill="#1a1b26" shape-rendering="crispEdges"/><rect width="24.4" height="24.65" x="0" y="513.9" fill="#1a1b26" shape-rendering="crispEdges"/><rect width="1195.6" height="24.65" x="24.4" y="513.9" fill="#1a1b26" shape-rendering="crispEdges"/><rect width="24.4" height="24.65" x="1220" y="513.9" fill="#1a1b26" shape-rendering="crispEdges"/><rect width="24.4" height="24.65" x="1244.4" y="513.9" fill="#1a1b26" shape-rendering="crispEdges"/><rect width="24.4" height="24.65" x="0" y="538.3" fill="#1a1b26" shape-rendering="crispEdges"/><rect width="1195.6" height="24.65" x="24.4" y="538.3" fill="#1a1b26" shape-rendering="crispEdges"/><rect width="24.4" height="24.65" x="1220" y="538.3" fill="#1a1b26" shape-rendering="crispEdges"/><rect width="24.4" height="24.65" x="1244.4" y="538.3" fill="#1a1b26" shape-rendering="crispEdges"/><rect width="24.4" height="24.65" x="0" y="562.7" fill="#1a1b26" shape-rendering="crispEdges"/><rect width="1195.6" height="24.65" x="24.4" y="562.7" fill="#1a1b26" shape-rendering="crispEdges"/><rect width="24.4" height="24.65" x="1220" y="562.7" fill="#1a1b26" shape-rendering="crispEdges"/><rect width="24.4" height="24.65" x="1244.4" y="562.7" fill="#1a1b26" shape-rendering="crispEdges"/><rect width="24.4" height="24.65" x="0" y="587.1" fill="#1a1b26" shape-rendering="crispEdges"/><rect width="1195.6" height="24.65" x="24.4" y="587.1" fill="#1a1b26" shape-rendering="crispEdges"/><rect width="24.4" height="24.65" x="1220" y="587.1" fill="#1a1b26" shape-rendering="crispEdges"/><rect width="24.4" height="24.65" x="1244.4" y="587.1" fill="#1a1b26" shape-rendering="crispEdges"/><rect width="24.4" height="24.65" x="0" y="611.5" fill="#1a1b26" shape-rendering="crispEdges"/><rect width="1195.6" height="24.65" x="24.4" y="611.5" fill="#1a1b26" shape-rendering="crispEdges"/><rect width="24.4" height="24.65" x="1220" y="611.5" fill="#1a1b26" shape-rendering="crispEdges"/><rect width="24.4" height="24.65" x="1244.4" y="611.5" fill="#1a1b26" shape-rendering="crispEdges"/><rect width="1244.4" height="24.65" x="0" y="635.9" fill="#1a1b26" shape-rendering="crispEdges"/><rect width="24.4" height="24.65" x="1244.4" y="635.9" fill="#1a1b26" shape-rendering="crispEdges"/><rect width="12.2" height="24.65" x="0" y="660.3" fill="#1f2335" shape-rendering="crispEdges"/><rect width="85.4" height="24.65" x="12.2" y="660.3" fill="#1f2335" shape-rendering="crispEdges"/><rect width="36.6" height="24.65" x="97.6" y="660.3" fill="#1f2335" shape-rendering="crispEdges"/><rect width="183" height="24.65" x="134.2" y="660.3" fill="#1f2335" shape-rendering="crispEdges"/><rect width="36.6" height="24.65" x="317.2" y="660.3" fill="#1f2335" shape-rendering="crispEdges"/><rect width="183" height="24.65" x="353.8" y="660.3" fill="#1f2335" shape-rendering="crispEdges"/><rect width="36.6" height="24.65" x="536.8" y="660.3" fill="#1f2335" shape-rendering="crispEdges"/><rect width="97.6" height="24.65" x="573.4" y="660.3" fill="#1f2335" shape-rendering="crispEdges"/><rect width="585.6" height="24.65" x="671" y="660.3" fill="#1f2335" shape-rendering="crispEdges"/><rect width="12.2" height="24.65" x="1256.6" y="660.3" fill="#1f2335" shape-rendering="crispEdges"/><rect width="12.2" height="24.65" x="0" y="684.7" fill="#1a1b26" shape-rendering="crispEdges"/><rect width="12.2" height="24.65" x="12.2" y="684.7" fill="#282c3d" shape-rendering="crispEdges"/><rect width="1220" height="24.65" x="24.4" y="684.7" fill="#282c3d" shape-rendering="crispEdges"/><rect width="12.2" height="24.65" x="1244.4" y="684.7" fill="#282c3d" shape-rendering="crispEdges"/><rect width="12.2" height="24.65" x="1256.6" y="684.7" fill="#1a1b26" shape-rendering="crispEdges"/><rect width="12.2" height="24.65" x="0" y="709.1" fill="#1a1b26" shape-rendering="crispEdges"/><rect width="12.2" height="24.65" x="12.2" y="709.1" fill="#282c3d" shape-rendering="crispEdges"/><rect width="24.4" height="24.65" x="24.4" y="709.1" fill="#282c3d" shape-rendering="crispEdges"/><rect width="341.6" height="24.65" x="48.8" y="709.1" fill="#282c3d" shape-rendering="crispEdges"/><rect width="12.2" height="24.65" x="390.4" y="709.1" fill="#e0e0e0" shape-rendering="crispEdges"/><rect width="817.4" height="24.65" x="402.6" y="709.1" fill="#282c3d" shape-rendering="crispEdges"/><rect width="24.4" height="24.65" x="1220" y="709.1" fill="#282c3d" shape-rendering="crispEdges"/><rect width="12.2" height="24.65" x="1244.4" y="709.1" fill="#282c3d" shape-rendering="crispEdges"/><rect width="12.2" height="24.65" x="1256.6" y="709.1" fill="#1a1b26" shape-rendering="crispEdges"/><rect width="12.2" height="24.65" x="0" y="733.5" fill="#1a1b26" shape-rendering="crispEdges"/><rect width="12.2" height="24.65" x="12.2" y="733.5" fill="#282c3d" shape-rendering="crispEdges"/><rect width="1220" height="24.65" x="24.4" y="733.5" fill="#282c3d" shape-rendering="crispEdges"/><rect width="12.2" height="24.65" x="1244.4" y="733.5" fill="#282c3d" shape-rendering="crispEdges"/><rect width="12.2" height="24.65" x="1256.6" y="733.5" fill="#1a1b26" shape-rendering="crispEdges"/><rect width="1268.8" height="24.65" x="0" y="757.9" fill="#1a1b26" shape-rendering="crispEdges"/><g class="terminal-3109079472-matrix"><text x="12.2" y="20" class="terminal-3109079472-r2" clip-path="url(#terminal-3109079472-line-0)" textLength="122">DeerFlow</text><text x="158.6" y="20" class="terminal-3109079472-r4" clip-path="url(#terminal-3109079472-line-0)" textLength="183">claude-opus-4.8</text><text x="341.6" y="20" class="terminal-3109079472-r5" clip-path="url(#terminal-3109079472-line-0)" textLength="61">·</text><text x="402.6" y="20" class="terminal-3109079472-r6" clip-path="url(#terminal-3109079472-line-0)" textLength="183">thread 4f2a8c1d</text><text x="585.6" y="20" class="terminal-3109079472-r5" clip-path="url(#terminal-3109079472-line-0)" textLength="61">·</text><text x="646.6" y="20" class="terminal-3109079472-r5" clip-path="url(#terminal-3109079472-line-0)" textLength="488">/Users/taohe/workspace/deer-flow/backend</text><text x="1134.6" y="20" class="terminal-3109079472-r5" clip-path="url(#terminal-3109079472-line-0)" textLength="61">·</text><text x="1195.6" y="20" class="terminal-3109079472-r5" clip-path="url(#terminal-3109079472-line-0)" textLength="12.2">1</text><text x="24.4" y="68.8" class="terminal-3109079472-r7" clip-path="url(#terminal-3109079472-line-2)" textLength="24.4">›</text><text x="48.8" y="68.8" class="terminal-3109079472-r7" clip-path="url(#terminal-3109079472-line-2)" textLength="671">Refactor the streaming bridge and add a regression test</text><text x="24.4" y="117.6" class="terminal-3109079472-r8" clip-path="url(#terminal-3109079472-line-4)" textLength="24.4">●</text><text x="48.8" y="117.6" class="terminal-3109079472-r3" clip-path="url(#terminal-3109079472-line-4)" textLength="561.2">I&apos;ll read the bridge, then add a focused test.</text><text x="24.4" y="166.4" class="terminal-3109079472-r9" clip-path="url(#terminal-3109079472-line-6)" textLength="48.8">⚙</text><text x="73.2" y="166.4" class="terminal-3109079472-r10" clip-path="url(#terminal-3109079472-line-6)" textLength="48.8">Read</text><text x="122" y="166.4" class="terminal-3109079472-r5" clip-path="url(#terminal-3109079472-line-6)" textLength="305">deerflow/tui/runtime.py</text><text x="427" y="166.4" class="terminal-3109079472-r11" clip-path="url(#terminal-3109079472-line-6)" textLength="48.8">✓</text><text x="24.4" y="190.8" class="terminal-3109079472-r5" clip-path="url(#terminal-3109079472-line-7)" textLength="719.8">def stream_actions(client, message): yield RunStarted()</text><text x="24.4" y="239.6" class="terminal-3109079472-r9" clip-path="url(#terminal-3109079472-line-9)" textLength="48.8">⚙</text><text x="73.2" y="239.6" class="terminal-3109079472-r10" clip-path="url(#terminal-3109079472-line-9)" textLength="48.8">Bash</text><text x="122" y="239.6" class="terminal-3109079472-r5" clip-path="url(#terminal-3109079472-line-9)" textLength="451.4">pytest tests/test_tui_runtime.py -q</text><text x="573.4" y="239.6" class="terminal-3109079472-r11" clip-path="url(#terminal-3109079472-line-9)" textLength="48.8">✓</text><text x="24.4" y="264" class="terminal-3109079472-r5" clip-path="url(#terminal-3109079472-line-10)" textLength="256.2">9 passed in 0.20s</text><text x="24.4" y="312.8" class="terminal-3109079472-r8" clip-path="url(#terminal-3109079472-line-12)" textLength="24.4">●</text><text x="48.8" y="312.8" class="terminal-3109079472-r3" clip-path="url(#terminal-3109079472-line-12)" textLength="1171.2">Done — 9 tests pass. Every run is now bracketed with RunStarted/RunEnded, and errors surface as</text><text x="24.4" y="337.2" class="terminal-3109079472-r3" clip-path="url(#terminal-3109079472-line-13)" textLength="451.4">an assistant row instead of crashing.</text><text x="12.2" y="678.8" class="terminal-3109079472-r12" clip-path="url(#terminal-3109079472-line-27)" textLength="85.4">● ready</text><text x="134.2" y="678.8" class="terminal-3109079472-r13" clip-path="url(#terminal-3109079472-line-27)" textLength="183">claude-opus-4.8</text><text x="353.8" y="678.8" class="terminal-3109079472-r6" clip-path="url(#terminal-3109079472-line-27)" textLength="183">thread 4f2a8c1d</text><text x="573.4" y="678.8" class="terminal-3109079472-r5" clip-path="url(#terminal-3109079472-line-27)" textLength="97.6">1234 tok</text><text x="12.2" y="703.2" class="terminal-3109079472-r13" clip-path="url(#terminal-3109079472-line-28)" textLength="12.2">╭</text><text x="24.4" y="703.2" class="terminal-3109079472-r13" clip-path="url(#terminal-3109079472-line-28)" textLength="1220">────────────────────────────────────────────────────────────────────────────────────────────────────</text><text x="1244.4" y="703.2" class="terminal-3109079472-r13" clip-path="url(#terminal-3109079472-line-28)" textLength="12.2">╮</text><text x="12.2" y="727.6" class="terminal-3109079472-r13" clip-path="url(#terminal-3109079472-line-29)" textLength="12.2">│</text><text x="48.8" y="727.6" class="terminal-3109079472-r14" clip-path="url(#terminal-3109079472-line-29)" textLength="341.6">explain the title middleware</text><text x="1244.4" y="727.6" class="terminal-3109079472-r13" clip-path="url(#terminal-3109079472-line-29)" textLength="12.2">│</text><text x="12.2" y="752" class="terminal-3109079472-r13" clip-path="url(#terminal-3109079472-line-30)" textLength="12.2">╰</text><text x="24.4" y="752" class="terminal-3109079472-r13" clip-path="url(#terminal-3109079472-line-30)" textLength="1220">────────────────────────────────────────────────────────────────────────────────────────────────────</text><text x="1244.4" y="752" class="terminal-3109079472-r13" clip-path="url(#terminal-3109079472-line-30)" textLength="12.2">╯</text></g></g></svg>